<svg xmlns="http://www.w3.org/2000/svg" width="120.503" height="104.435" viewBox="0 0 120.503 104.435">
  <path id="Tracé_136799" data-name="Tracé 136799" d="M211.949,810.334h-5.788a97.416,97.416,0,0,0-4.516-14.734c-3.263-8.744-4.156-19.569-4.369-23.129a2.061,2.061,0,0,0,1.287-2.615c-.019-.055-.04-.11-.063-.163l-.388-.864h.3a1.421,1.421,0,0,0,1.333-1.5,1.4,1.4,0,0,0-.112-.476l-1.35-2.9a3.16,3.16,0,0,0-2.959-1.816h-7.37a3.146,3.146,0,0,0-2.956,1.8l-1.351,2.943a1.4,1.4,0,0,0,.1,1.308,1.37,1.37,0,0,0,1.125.645h.3l-.39.9a2.239,2.239,0,0,0,.229,2.117,2.172,2.172,0,0,0,.573.55c-.186,3.28-1.043,14.256-4.382,23.206a97.293,97.293,0,0,0-4.523,14.731h-8.007a97.416,97.416,0,0,0-4.516-14.734c-3.263-8.744-4.156-19.569-4.369-23.129a2.061,2.061,0,0,0,1.293-2.612c-.019-.057-.04-.112-.064-.167l-.388-.864h.3a1.42,1.42,0,0,0,1.221-1.979l-1.35-2.9a3.159,3.159,0,0,0-2.964-1.815h-7.37a3.146,3.146,0,0,0-2.956,1.8l-1.351,2.943a1.4,1.4,0,0,0,.1,1.308,1.37,1.37,0,0,0,1.125.645h.3l-.39.9a2.239,2.239,0,0,0,.229,2.117,2.172,2.172,0,0,0,.573.55c-.186,3.28-1.043,14.256-4.382,23.206a97.291,97.291,0,0,0-4.523,14.731h-8.006a97.417,97.417,0,0,0-4.516-14.734c-3.263-8.745-4.152-19.566-4.369-23.13a2.061,2.061,0,0,0,1.287-2.615c-.019-.055-.04-.11-.063-.163l-.388-.864h.3a1.421,1.421,0,0,0,1.333-1.5,1.4,1.4,0,0,0-.112-.476l-1.35-2.9a3.159,3.159,0,0,0-2.959-1.815h-7.371a3.147,3.147,0,0,0-2.96,1.8l-1.351,2.943a1.4,1.4,0,0,0,.1,1.308,1.37,1.37,0,0,0,1.125.645h.3l-.39.9a2.239,2.239,0,0,0,.229,2.117,2.172,2.172,0,0,0,.573.55c-.186,3.28-1.043,14.256-4.382,23.206a97.278,97.278,0,0,0-4.519,14.731H95.9a1.922,1.922,0,0,0-1.885,1.958v52.267a2.122,2.122,0,0,0,2.05,2.008h116.15a2.394,2.394,0,0,0,2.3-2.385V812.9a2.459,2.459,0,0,0-2.346-2.567C212.1,810.331,212.022,810.331,211.949,810.334ZM194.6,772.845c.1,1.339.363,5.239.977,9.372h-8.32c.615-4.133.874-8.033.977-9.372Zm-7.779,12.05h9.192a77.367,77.367,0,0,0,1.964,8.474l-6.364,6.893-6.747-6.909A77.52,77.52,0,0,0,186.824,784.9Zm.616-19.8a.522.522,0,0,1,.514-.28h7.371a.523.523,0,0,1,.514.28l.5,1.059h-9.4Zm7.784,3.737.584,1.339H187.47l.584-1.339Zm-11.521,27.7c.075-.2.147-.25.221-.454l6.756,7.025a1.493,1.493,0,0,0,.959.533h.019a1.38,1.38,0,0,0,.965-.481l6.313-6.87c.068.187.134.062.2.248,2.178,5.827,3.5,11.119,4.3,13.8H179.4C180.2,807.656,181.523,802.362,183.7,796.534Zm-26.587-23.689c.1,1.339.363,5.239.977,9.372h-8.32c.615-4.133.874-8.033.977-9.372Zm-7.779,12.05h9.189a77.592,77.592,0,0,0,1.963,8.474l-6.368,6.893-6.747-6.909a77.254,77.254,0,0,0,1.961-8.458Zm.616-19.8a.522.522,0,0,1,.514-.28h7.371a.523.523,0,0,1,.514.28l.5,1.059h-9.4Zm7.784,3.737.584,1.339h-8.339l.584-1.339Zm-11.521,27.7c.075-.2.147-.25.221-.454l6.756,7.025a1.493,1.493,0,0,0,.959.533h.019a1.38,1.38,0,0,0,.965-.481l6.313-6.87c.067.187.134.062.2.248,2.178,5.827,3.5,11.119,4.3,13.8H141.916C142.71,807.656,144.034,802.362,146.216,796.534Zm-26.591-23.689c.1,1.339.363,5.239.977,9.372h-8.32c.615-4.133.874-8.033.977-9.372Zm-7.779,12.05h9.191A77.592,77.592,0,0,0,123,793.369l-6.368,6.893-6.746-6.909A77.252,77.252,0,0,0,111.846,784.9Zm.616-19.8a.522.522,0,0,1,.514-.28h7.371a.523.523,0,0,1,.514.28l.5,1.059h-9.4Zm7.784,3.737.584,1.339h-8.337l.584-1.339Zm-11.521,27.7c.075-.2.147-.25.221-.454L115.7,803.1a1.493,1.493,0,0,0,.959.533h.019a1.38,1.38,0,0,0,.965-.481l6.313-6.87c.067.187.134.062.2.248,2.178,5.827,3.5,11.119,4.3,13.8H104.425C105.221,807.656,106.545,802.362,108.725,796.534ZM96.694,863.89V847.823H107.4a1.339,1.339,0,1,0,0-2.678H96.694V831.756h22.761a1.339,1.339,0,1,0,0-2.678H96.694V813.012H211.838v32.133H197.11a1.339,1.339,0,1,0,0,2.678h14.728V863.89Zm87.028-32.134h21.422a1.339,1.339,0,1,0,0-2.678H183.722a1.339,1.339,0,1,0,0,2.678Zm8.033,13.389h-4.017a1.339,1.339,0,1,0,0,2.678h4.017a1.339,1.339,0,0,0,0-2.678Zm-12.05-16.067a1.339,1.339,0,0,0-1.339-1.339H128.827a1.338,1.338,0,0,0-1.339,1.339v17.406a1.339,1.339,0,0,0,1.339,1.339h49.539a1.34,1.34,0,0,0,1.339-1.339Zm-2.678,16.067H130.166V830.417h46.861Zm10.711,9.372H167.655a1.339,1.339,0,1,0,0,2.678h20.083a1.339,1.339,0,0,0,0-2.678Zm-56.233-33.472a1.338,1.338,0,0,0-1.337-1.339h-9.374a1.339,1.339,0,1,0,0,2.678h9.372a1.339,1.339,0,0,0,1.339-1.337Z" transform="translate(-94.016 -762.132)" fill="#c2ac8e"/>
</svg>
