<svg xmlns="http://www.w3.org/2000/svg" width="229" height="87" viewBox="0 0 229 87">
  <g id="bouton" transform="translate(-3986 -2884.844)">
    <g id="Union_2" data-name="Union 2" transform="translate(3986 2884.844)" fill="none">
      <path d="M106.807,72.737H0V14.262H106.808L114.891,0l8.083,14.262H229V72.737H122.974L114.89,87Z" stroke="none"/>
      <path d="M 114.8904113769531 82.94321441650391 L 121.8081893920898 70.73710632324219 L 227.0005035400391 70.73710632324219 L 227.0005035400391 16.26229667663574 L 121.8088150024414 16.26229667663574 L 114.8913116455078 4.056368350982666 L 107.9738159179688 16.26229667663574 L 2.000001668930054 16.26229667663574 L 2.000001668930054 70.73710632324219 L 107.9726257324219 70.73710632324219 L 114.8904113769531 82.94321441650391 M 114.8904113769531 86.99942016601562 L 106.8072509765625 72.73710632324219 L 1.770019480318297e-06 72.73710632324219 L 1.770019480318297e-06 14.26229667663574 L 106.8084106445312 14.26229667663574 L 114.8913116455078 1.49536135722883e-05 L 122.9742202758789 14.26229667663574 L 229.0005035400391 14.26229667663574 L 229.0005035400391 72.73710632324219 L 122.9735641479492 72.73710632324219 L 114.8904113769531 86.99942016601562 Z" stroke="none" fill="#cbbba0"/>
    </g>
  </g>
</svg>
