<svg xmlns="http://www.w3.org/2000/svg" width="1847" height="1014" viewBox="0 0 1847 1014">
  <g id="corners" transform="translate(-36.381 -36)">
    <g id="Groupe_71" data-name="Groupe 71" transform="translate(2 -9)">
      <path id="Tracé_70137" data-name="Tracé 70137" d="M328.128,200.068a9.035,9.035,0,0,0,5.1,1.064c.166-.02.337-.008.508-.013l-.065.086a3.322,3.322,0,0,0-.49,1.9,12.233,12.233,0,0,0,.6,2.536,5.252,5.252,0,0,1,2.367-.853,3.752,3.752,0,0,0,1.19-.465,8.584,8.584,0,0,0-.048.883,9.376,9.376,0,0,0,.679,3.476,8.575,8.575,0,0,0,3.323,4.173,6.835,6.835,0,0,0,3.248.931,2.9,2.9,0,0,0,1.653-.44,2.167,2.167,0,0,0,.908-1.607,4.18,4.18,0,0,0,.028-.463,2.734,2.734,0,0,0-.9-2.126,2.025,2.025,0,0,0-.284-.2l.025-.1a7.786,7.786,0,0,0,.81-4.012c0-.586-.028-1.182-.06-1.768a11.633,11.633,0,0,0,1.046,1.615,8.088,8.088,0,0,0,6.591,3.237,10.277,10.277,0,0,0,7.559-3.338,6.528,6.528,0,0,0,1.4-4.208c.005-3.356-2.105-6.993-5.916-7.408a6,6,0,0,0-.664-.035,5.711,5.711,0,0,0-5.8,5.371,4.016,4.016,0,0,0,3.431,3.907,2.469,2.469,0,0,0,.649.08,2.839,2.839,0,0,0,2.8-2.365,3.047,3.047,0,0,1-2.425-.528,1.2,1.2,0,0,1-.443-.873,1.916,1.916,0,0,1,.589-1.288,2,2,0,0,1,1.4-.626c.662.005,1.456.367,2.239,1.617a3.215,3.215,0,0,1,.5,1.718,4.11,4.11,0,0,1-1.348,2.91,4.631,4.631,0,0,1-3.149,1.313,4.015,4.015,0,0,1-1.288-.211c-3.2-1.089-4.2-2.993-4.226-4.973a7.093,7.093,0,0,1,1.638-4.324c2.744-3.363,7.172-5.511,11.888-6.769a5.006,5.006,0,0,0-1.595,3.275,2.573,2.573,0,0,0,.669,1.761l.375.423c.578-.445,1.894-.136,3.124-.387a4.475,4.475,0,0,0,1.19-.483,8.791,8.791,0,0,0-.254,1.245,8.537,8.537,0,0,0-.053.958,8.416,8.416,0,0,0,1.014,4.088,3.774,3.774,0,0,0,3.268,2.105,4.234,4.234,0,0,0,1.6-.327s-1.2-.933-1.207-3.831a9.9,9.9,0,0,1,3.652-7.192q.453-.4.936-.752c1.522.113,4.206,1.265,6.377,1.283a3.339,3.339,0,0,0,2.231-.7,3.2,3.2,0,0,0,1-1.927,29.239,29.239,0,0,0,7.24.885c7.78-.093,9.435-3.167,9.435-3.167q-16.281.109-32.568.118c-.712-.023-1.444-.038-2.193-.038-.712,0-1.436.015-2.168.045-1.373,0-2.742.005-4.113.005-1.353,0-4.063.314-4.063.314a24.4,24.4,0,0,0-8.714,2.767c-3.811,2.178-6.208,5.026-9.725,7.494a9.365,9.365,0,0,1-5.252,1.826,5.569,5.569,0,0,1-3.849-1.439,4.341,4.341,0,0,1-1.555-3.24,4.159,4.159,0,0,1,1.117-2.8,3.572,3.572,0,0,1,2.586-1.2,3.291,3.291,0,0,1,1.19.229,1.987,1.987,0,0,1,1.378,1.919,2.319,2.319,0,0,1-.483,1.421,1.51,1.51,0,0,1-1.134.594,2.571,2.571,0,0,1-2.551-1.685,3.415,3.415,0,0,0-.372,1.519,3.127,3.127,0,0,0,1.137,2.392,4.442,4.442,0,0,0,2.908.968,6.718,6.718,0,0,0,1.273-.128,5.106,5.106,0,0,0,3.917-4.553,4.608,4.608,0,0,0,1.716.287,20,20,0,0,0,2.264-.206,16.1,16.1,0,0,0-.078-2.727,3.453,3.453,0,0,0-.337-.863,15.3,15.3,0,0,0,5.232-1.062c.651-.279,3.076-1.733,3.076-1.733a6.973,6.973,0,0,0-1.55-.1h0q-7.807-.015-15.614-.043a7.432,7.432,0,0,0-1.185-.1h-.073a8.951,8.951,0,0,0-1.182.093h-.151v.02a9.541,9.541,0,0,0-5.044,2.435,3.712,3.712,0,0,0-2.835-2.392,4.237,4.237,0,0,0-1.987,2.684,19.562,19.562,0,0,0-4.125-1.829,14.559,14.559,0,0,0-3.086-.2,14.72,14.72,0,0,0,.2,3.087,19.693,19.693,0,0,0,1.829,4.125,4.221,4.221,0,0,0-2.682,1.987,3.707,3.707,0,0,0,2.39,2.835,9.541,9.541,0,0,0-2.435,5.044l-.02,0v.148a8.53,8.53,0,0,0-.091,1.182l0,.073a7.457,7.457,0,0,0,.1,1.185q.03,7.8.04,15.611h0a6.883,6.883,0,0,0,.1,1.552s1.454-2.427,1.733-3.079a15.369,15.369,0,0,0,1.062-5.232,3.334,3.334,0,0,0,.86.335,15.7,15.7,0,0,0,2.732.08,20.089,20.089,0,0,0,.2-2.264,4.555,4.555,0,0,0-.284-1.716,5.1,5.1,0,0,0,4.55-3.917,6.536,6.536,0,0,0,.133-1.273,4.431,4.431,0,0,0-.971-2.905,3.111,3.111,0,0,0-2.392-1.137,3.411,3.411,0,0,0-1.519.37,2.573,2.573,0,0,1,1.688,2.553,1.517,1.517,0,0,1-.6,1.132,2.317,2.317,0,0,1-1.419.483,1.994,1.994,0,0,1-1.922-1.378,3.221,3.221,0,0,1-.229-1.19,3.572,3.572,0,0,1,1.2-2.586,4.147,4.147,0,0,1,2.8-1.117,4.341,4.341,0,0,1,3.24,1.555,5.556,5.556,0,0,1,1.439,3.849,9.346,9.346,0,0,1-1.826,5.252c-2.468,3.517-5.315,5.914-7.494,9.725a24.4,24.4,0,0,0-2.767,8.714s-.314,2.707-.314,4.062c0,1.371-.005,2.739-.005,4.113-.03.732-.045,1.456-.045,2.168,0,.75.015,1.482.038,2.193q-.019,16.285-.118,32.568s3.074-1.655,3.167-9.436a29.107,29.107,0,0,0-.885-7.24,3.212,3.212,0,0,0,1.927-1,3.338,3.338,0,0,0,.7-2.231c-.015-2.168-1.17-4.855-1.285-6.374.239-.322.488-.636.755-.938a9.894,9.894,0,0,1,7.189-3.653c2.9,0,3.834,1.207,3.834,1.207a4.226,4.226,0,0,0,.327-1.6,3.777,3.777,0,0,0-2.108-3.268,8.4,8.4,0,0,0-4.085-1.014,7.9,7.9,0,0,0-.956.053,8.356,8.356,0,0,0-1.248.254,4.392,4.392,0,0,0,.483-1.19c.252-1.23-.06-2.546.39-3.124l-.428-.375a2.561,2.561,0,0,0-1.756-.669,5,5,0,0,0-3.278,1.6c1.258-4.719,3.406-9.146,6.772-11.891a7.08,7.08,0,0,1,4.322-1.638c1.982.02,3.884,1.029,4.973,4.226a4.017,4.017,0,0,1,.211,1.29,4.608,4.608,0,0,1-1.313,3.144,4.1,4.1,0,0,1-2.91,1.351,3.193,3.193,0,0,1-1.718-.5c-1.25-.785-1.612-1.577-1.617-2.239a1.99,1.99,0,0,1,.626-1.4,1.939,1.939,0,0,1,1.288-.589,1.2,1.2,0,0,1,.873.44,3.055,3.055,0,0,1,.528,2.427,2.843,2.843,0,0,0,2.367-2.8,2.7,2.7,0,0,0-.081-.649,4.022,4.022,0,0,0-3.909-3.431,5.706,5.706,0,0,0-5.368,5.8,5.988,5.988,0,0,0,.033.664c.415,3.811,4.055,5.921,7.406,5.916a6.544,6.544,0,0,0,4.211-1.4,10.262,10.262,0,0,0,3.336-7.559,8.071,8.071,0,0,0-3.235-6.591,11.643,11.643,0,0,0-1.615-1.046c.586.035,1.182.06,1.768.06a7.781,7.781,0,0,0,4.012-.81l.1-.025a2.507,2.507,0,0,0,.2.284,2.747,2.747,0,0,0,2.126.9c.153,0,.307-.013.465-.03a2.167,2.167,0,0,0,1.607-.908,2.9,2.9,0,0,0,.44-1.653,6.834,6.834,0,0,0-.931-3.247,8.57,8.57,0,0,0-4.176-3.323,9.355,9.355,0,0,0-3.474-.679c-.3,0-.589.02-.88.045a3.631,3.631,0,0,0,.463-1.187,5.223,5.223,0,0,1,.853-2.367,12.358,12.358,0,0,0-2.536-.6,3.344,3.344,0,0,0-1.9.493c-.03.02-.058.045-.086.065.005-.171-.008-.342.013-.508A9.041,9.041,0,0,0,328.128,200.068Zm2.541,9.5.015.028a10.277,10.277,0,0,0-2.9,1.381,9.849,9.849,0,0,0,1.162-3.074h0a2.215,2.215,0,0,1,.838-1.524,2.4,2.4,0,0,1,1.381-.33c.423,0,.863.05,1.3.091a6.67,6.67,0,0,0-.523,1.726,2.154,2.154,0,0,1-1.273,1.7Zm6.963-6.963a2.162,2.162,0,0,1-1.7,1.275,6.509,6.509,0,0,0-1.726.521c-.04-.433-.093-.873-.093-1.3a2.423,2.423,0,0,1,.332-1.381,2.215,2.215,0,0,1,1.524-.838h0a9.84,9.84,0,0,0,3.074-1.16,10.231,10.231,0,0,0-1.381,2.893Zm-.49,11.888a2.66,2.66,0,0,0-.6,1.487,11.286,11.286,0,0,0-1.743-1.484,7.29,7.29,0,0,0-4.171-1.212c-.254,0-.508.013-.762.035a16.093,16.093,0,0,1,2.488-.249c.081,0,.166,0,.259,0a9.829,9.829,0,0,1,2.842.4,3.41,3.41,0,0,1,1.69,1.026Zm5.416-5.416a3.392,3.392,0,0,1-1.026-1.69,9.918,9.918,0,0,1-.4-2.845c0-.091,0-.176,0-.257a16.129,16.129,0,0,1,.249-2.49c-.023.257-.038.511-.038.765a7.3,7.3,0,0,0,1.217,4.171,11.008,11.008,0,0,0,1.482,1.743A2.653,2.653,0,0,0,342.557,209.081Zm-16.6,4.676-.025.015.018-.023.008.008ZM341.817,197.9l-.008-.008.023-.018Zm-2.123,20.207a2.545,2.545,0,0,1-.357.023,1.8,1.8,0,0,1-1.882-1.866,1.95,1.95,0,0,1,.792-1.693,3.715,3.715,0,0,0-2.515-1.99,10.775,10.775,0,0,0-3.124-.443c-.1,0-.191,0-.284,0a13.1,13.1,0,0,0-6.075,1.466,9.383,9.383,0,0,1,7.021-3.451,8.523,8.523,0,0,1,3.129.614,7.714,7.714,0,0,1,3.72,2.938,5.954,5.954,0,0,1,.8,2.77,1.99,1.99,0,0,1-.277,1.122,1.228,1.228,0,0,1-.946.508Zm6.472-6.472a1.226,1.226,0,0,1-.506.946,2,2,0,0,1-1.127.277,5.952,5.952,0,0,1-2.767-.8,7.714,7.714,0,0,1-2.938-3.72,8.47,8.47,0,0,1-.611-3.129,9.381,9.381,0,0,1,3.449-7.023,13.122,13.122,0,0,0-1.467,6.077c0,.093,0,.186,0,.282a10.767,10.767,0,0,0,.443,3.127,3.708,3.708,0,0,0,1.99,2.515,1.951,1.951,0,0,1,1.693-.792,1.8,1.8,0,0,1,1.867,1.882A3.016,3.016,0,0,1,346.166,211.634ZM332.9,217.779c-1.9,0-3.979-.274-5.411-.277-.106,0-.211,0-.312.005v.02c-.126-.005-.249-.015-.372-.015a9.908,9.908,0,0,0-5.4,1.733q.362-.43.732-.865l.013.008.03-.058,1.087-1.28a15.847,15.847,0,0,1,4.3-2.279,9.083,9.083,0,0,1,3.054-.553,6.361,6.361,0,0,1,3.642,1.054,8.229,8.229,0,0,1,2.045,1.917,7.5,7.5,0,0,1-3.413.591Zm12.945-12.942a7.458,7.458,0,0,1-.594,3.413,8.228,8.228,0,0,1-1.917-2.045,6.36,6.36,0,0,1-1.054-3.642,9.024,9.024,0,0,1,.556-3.054,15.832,15.832,0,0,1,2.277-4.3c.428-.362.853-.724,1.28-1.089a.579.579,0,0,1,.058-.025l-.008-.018.865-.73a9.915,9.915,0,0,0-1.733,5.4c0,.123.01.246.015.372h-.02c0,.1-.005.206-.005.314C345.565,200.858,345.842,202.938,345.842,204.837Zm-23.713,17.674c-4.11,3.391-6.43,8.937-7.594,14.547a4.613,4.613,0,0,0-.272.7v-.569A27.582,27.582,0,0,1,316.773,226c2.017-4.027,5.851-7.572,10.029-7.551a8.746,8.746,0,0,1,5.376,1.992,7.134,7.134,0,0,1,2.868,5.851,9.359,9.359,0,0,1-3,6.842,5.614,5.614,0,0,1-3.612,1.187c-3.011,0-6.163-1.894-6.477-5.079a5.428,5.428,0,0,1-.03-.568,4.97,4.97,0,0,1,1.441-3.522,4.373,4.373,0,0,1,3-1.346c1.313.02,2.48.724,3,2.724a1.736,1.736,0,0,1,.05.423,1.938,1.938,0,0,1-.626,1.409,3.381,3.381,0,0,0-.586-1.6,1.983,1.983,0,0,0-1.62-.812,3.006,3.006,0,0,0-2.847,2.923,3.674,3.674,0,0,0,2.06,3.031,4.129,4.129,0,0,0,2.209.639,5.492,5.492,0,0,0,5.157-5.431,5.014,5.014,0,0,0-.259-1.587c-1.137-3.489-3.517-4.885-5.858-4.862a7.987,7.987,0,0,0-4.915,1.849Zm28.443-28.445a8.006,8.006,0,0,0-1.849,4.918c-.023,2.342,1.374,4.722,4.862,5.861a5.083,5.083,0,0,0,1.585.259,5.5,5.5,0,0,0,5.433-5.159,4.144,4.144,0,0,0-.639-2.209,3.674,3.674,0,0,0-3.031-2.06,3.006,3.006,0,0,0-2.923,2.847,1.982,1.982,0,0,0,.813,1.617,3.354,3.354,0,0,0,1.6.586,1.922,1.922,0,0,1-1.409.629,1.607,1.607,0,0,1-.423-.05c-2-.521-2.7-1.69-2.724-3a4.354,4.354,0,0,1,1.348-3,4.959,4.959,0,0,1,3.519-1.441,5.447,5.447,0,0,1,.569.03c3.187.314,5.076,3.466,5.079,6.477a5.609,5.609,0,0,1-1.187,3.612,9.354,9.354,0,0,1-6.842,3,7.13,7.13,0,0,1-5.851-2.87,8.754,8.754,0,0,1-1.995-5.373c-.018-4.178,3.527-8.012,7.554-10.029a27.624,27.624,0,0,1,11.189-2.51h.568a4.607,4.607,0,0,0-.7.272C359.508,187.639,353.964,189.958,350.571,194.066Zm-30.457,43.41a4.692,4.692,0,0,1-1.318,2.138c-2.176,1.275-3.386,3.529-4.294,5.723a46.757,46.757,0,0,1,.923-7.979,5.881,5.881,0,0,1,1.021-1.416,4.283,4.283,0,0,1,2.782-1.482,1.623,1.623,0,0,1,1.082.392,6.026,6.026,0,0,0-.111,1.472,4.3,4.3,0,0,1-.086,1.152Zm45.422-45.422a4.19,4.19,0,0,1-1.152.086,6.046,6.046,0,0,0-1.471.111,1.621,1.621,0,0,1-.392-1.084,4.283,4.283,0,0,1,1.482-2.78,5.907,5.907,0,0,1,1.416-1.021,46.76,46.76,0,0,1,7.979-.923c-2.191.908-4.447,2.118-5.723,4.294A4.692,4.692,0,0,1,365.535,192.054Zm-40.761,50.264c-3.572.03-6.787,2.256-8.852,5.184l-.033,0v.045a13.736,13.736,0,0,0-1.59,2.988,12.631,12.631,0,0,1,.74-4.037c.933-2.359,2.01-4.674,4.035-5.962a1.516,1.516,0,0,0,.3-.186,7.014,7.014,0,0,1,3.366-.843,7.483,7.483,0,0,1,3.62.89,2.844,2.844,0,0,1,1.64,2.458c0,.033,0,.07-.008.106a8.52,8.52,0,0,0-3.22-.646Zm45.606-45.6a8.423,8.423,0,0,0,.646,3.217c-.038,0-.073.008-.108.008a2.84,2.84,0,0,1-2.458-1.64,7.483,7.483,0,0,1-.891-3.62,7.128,7.128,0,0,1,.048-.848,6.738,6.738,0,0,1,.792-2.518,1.4,1.4,0,0,0,.186-.3c1.29-2.027,3.6-3.1,5.964-4.035a12.632,12.632,0,0,1,4.037-.74,13.776,13.776,0,0,0-2.988,1.587h-.045v.035C372.634,189.928,370.408,193.143,370.38,196.717ZM316.7,255.841a2.322,2.322,0,0,1-1.456.7c-.262-.936-.536-1.877-.74-2.8a11.1,11.1,0,0,1,1.572-4.759c.362,1.683,1.117,3.693,1.1,5.232a2.4,2.4,0,0,1-.48,1.622Zm67.2-67.2a2.4,2.4,0,0,1-1.622.478c-1.54.015-3.549-.74-5.232-1.1a11.111,11.111,0,0,1,4.759-1.572c.923.2,1.864.48,2.8.74A2.322,2.322,0,0,1,383.9,188.643ZM315.437,264.69a17.094,17.094,0,0,1-1.26,6.887c.033-5.225.028-10,.048-15.224.058.209.118.418.174.624a29.533,29.533,0,0,1,1.039,7.712Zm77.313-77.313a29.64,29.64,0,0,1-7.712-1.036c-.206-.058-.415-.118-.624-.176,5.225-.018,10-.015,15.224-.05A17.06,17.06,0,0,1,392.75,187.377Zm-74.113,23.449a2.983,2.983,0,0,1,.445,1.781,12.034,12.034,0,0,1-.108,1.434,7.37,7.37,0,0,1-1.668-.153,1.562,1.562,0,0,1-1.092-.714,11.421,11.421,0,0,0-1.084-4.025,6.769,6.769,0,0,0,3.507,1.678Zm20.25-20.247a6.777,6.777,0,0,0-1.678-3.512,11.475,11.475,0,0,0,4.025,1.089,1.544,1.544,0,0,1,.712,1.089,7.381,7.381,0,0,1,.156,1.668,12.588,12.588,0,0,1-1.434.108A3,3,0,0,1,338.887,190.58ZM314.3,219.341c-.01.028-.028.063-.04.093q-.008-5.011-.025-10.019a10.262,10.262,0,0,1,1.074,4.128c0,.023,0,.048,0,.075a15,15,0,0,1-1.009,5.723ZM347.4,186.235a14.993,14.993,0,0,1-5.723,1.009H341.6a10.3,10.3,0,0,1-4.128-1.074q5.011.011,10.019.025C347.464,186.208,347.429,186.225,347.4,186.235Zm-31.423,12.874a6.029,6.029,0,0,1,4.7-2.445,6.809,6.809,0,0,1,3.346.956,7.969,7.969,0,0,1,4.234,7.546,16.114,16.114,0,0,1-.221,2.561h0l0,.015c-.352,2.216-2.251,4.852-4.513,7.559q-.449.54-.911,1.082a5.2,5.2,0,0,0-1.187,1.4,42.62,42.62,0,0,0-5.484,7.8,17.926,17.926,0,0,0-1.341,3.4,23.425,23.425,0,0,1,2.631-8.208c2.07-3.64,4.883-6.017,7.446-9.649a10.259,10.259,0,0,0,1.995-5.786,6.5,6.5,0,0,0-1.683-4.483,5.288,5.288,0,0,0-3.929-1.859,4.9,4.9,0,0,0-4.935,4.639,4.2,4.2,0,0,0,.292,1.529,2.939,2.939,0,0,0,2.792,1.972,2.8,2.8,0,0,0,2.948-2.548,3.028,3.028,0,0,0-.84-1.962c1.155.146,2.151,1.225,2.166,3.081a5.527,5.527,0,0,1-.113,1.089,4.176,4.176,0,0,1-3.924,3.18,2.98,2.98,0,0,1-.556-.048,5.227,5.227,0,0,1-4.669-4.467c0-.747,0-1.494-.005-2.241a8.718,8.718,0,0,1,1.766-4.105Zm11.191-11.191a8.708,8.708,0,0,1,4.105-1.766l2.241.005a5.227,5.227,0,0,1,4.468,4.669,2.987,2.987,0,0,1,.05.556,4.181,4.181,0,0,1-3.182,3.924,5.532,5.532,0,0,1-1.089.113c-1.856-.015-2.936-1.009-3.079-2.166a3.021,3.021,0,0,0,1.957.84,2.8,2.8,0,0,0,2.551-2.948,2.94,2.94,0,0,0-1.97-2.792,4.218,4.218,0,0,0-1.532-.292A4.891,4.891,0,0,0,327.054,193a5.288,5.288,0,0,0,1.856,3.929,6.49,6.49,0,0,0,4.48,1.683,10.259,10.259,0,0,0,5.791-2c3.63-2.561,6.01-5.373,9.649-7.443a23.444,23.444,0,0,1,8.206-2.631,17.926,17.926,0,0,0-3.4,1.341,42.577,42.577,0,0,0-7.8,5.481,5.209,5.209,0,0,0-1.4,1.19c-.36.307-.722.611-1.082.911-2.707,2.259-5.343,4.161-7.559,4.513l-.015,0h0a16.138,16.138,0,0,1-2.563.224,7.974,7.974,0,0,1-7.544-4.236,6.8,6.8,0,0,1-.956-3.346A6.029,6.029,0,0,1,327.169,187.918Zm-12.877,7.461c.616-.928,1.233-1.026,2.251-1.429a7.751,7.751,0,0,0,2.1,2.131,6.917,6.917,0,0,0-2.178,1.215c-1.021-.5-1.995-1.016-2.176-1.917Zm9.146-9.146c.9.181,1.416,1.155,1.917,2.176a6.863,6.863,0,0,0-1.212,2.178,7.794,7.794,0,0,0-2.133-2.1C322.413,187.465,322.511,186.849,323.439,186.233Zm-8.349,2.513a8.971,8.971,0,0,1-.269-1.253c2.395,2.45,5.786,5.889,8.626,8.814a7.28,7.28,0,0,0-2.77-.576c-.138,0-.272.018-.41.028-1.167-.191-2.312-1.306-3.22-2.729a18.362,18.362,0,0,1-1.957-4.284Zm1.716-1.716a18.5,18.5,0,0,1,4.284,1.955c1.424.911,2.536,2.055,2.729,3.222-.01.138-.028.272-.028.41a7.279,7.279,0,0,0,.576,2.77c-2.926-2.84-6.364-6.231-8.814-8.626A9.329,9.329,0,0,1,316.806,187.03Z" transform="translate(2066.507 -268.186) rotate(90)" fill="#cbbba0"/>
    </g>
    <g id="Groupe_72" data-name="Groupe 72" transform="translate(0 11)">
      <path id="Tracé_208" data-name="Tracé 208" d="M328.128,200.068a9.035,9.035,0,0,0,5.1,1.064c.166-.02.337-.008.508-.013l-.065.086a3.322,3.322,0,0,0-.49,1.9,12.233,12.233,0,0,0,.6,2.536,5.252,5.252,0,0,1,2.367-.853,3.752,3.752,0,0,0,1.19-.465,8.584,8.584,0,0,0-.048.883,9.376,9.376,0,0,0,.679,3.476,8.575,8.575,0,0,0,3.323,4.173,6.835,6.835,0,0,0,3.248.931,2.9,2.9,0,0,0,1.653-.44,2.167,2.167,0,0,0,.908-1.607,4.18,4.18,0,0,0,.028-.463,2.734,2.734,0,0,0-.9-2.126,2.025,2.025,0,0,0-.284-.2l.025-.1a7.786,7.786,0,0,0,.81-4.012c0-.586-.028-1.182-.06-1.768a11.633,11.633,0,0,0,1.046,1.615,8.088,8.088,0,0,0,6.591,3.237,10.277,10.277,0,0,0,7.559-3.338,6.528,6.528,0,0,0,1.4-4.208c.005-3.356-2.105-6.993-5.916-7.408a6,6,0,0,0-.664-.035,5.711,5.711,0,0,0-5.8,5.371,4.016,4.016,0,0,0,3.431,3.907,2.469,2.469,0,0,0,.649.08,2.839,2.839,0,0,0,2.8-2.365,3.047,3.047,0,0,1-2.425-.528,1.2,1.2,0,0,1-.443-.873,1.916,1.916,0,0,1,.589-1.288,2,2,0,0,1,1.4-.626c.662.005,1.456.367,2.239,1.617a3.215,3.215,0,0,1,.5,1.718,4.11,4.11,0,0,1-1.348,2.91,4.631,4.631,0,0,1-3.149,1.313,4.015,4.015,0,0,1-1.288-.211c-3.2-1.089-4.2-2.993-4.226-4.973a7.093,7.093,0,0,1,1.638-4.324c2.744-3.363,7.172-5.511,11.888-6.769a5.006,5.006,0,0,0-1.595,3.275,2.573,2.573,0,0,0,.669,1.761l.375.423c.578-.445,1.894-.136,3.124-.387a4.475,4.475,0,0,0,1.19-.483,8.791,8.791,0,0,0-.254,1.245,8.537,8.537,0,0,0-.053.958,8.416,8.416,0,0,0,1.014,4.088,3.774,3.774,0,0,0,3.268,2.105,4.234,4.234,0,0,0,1.6-.327s-1.2-.933-1.207-3.831a9.9,9.9,0,0,1,3.652-7.192q.453-.4.936-.752c1.522.113,4.206,1.265,6.377,1.283a3.339,3.339,0,0,0,2.231-.7,3.2,3.2,0,0,0,1-1.927,29.239,29.239,0,0,0,7.24.885c7.78-.093,9.435-3.167,9.435-3.167q-16.281.109-32.568.118c-.712-.023-1.444-.038-2.193-.038-.712,0-1.436.015-2.168.045-1.373,0-2.742.005-4.113.005-1.353,0-4.063.314-4.063.314a24.4,24.4,0,0,0-8.714,2.767c-3.811,2.178-6.208,5.026-9.725,7.494a9.365,9.365,0,0,1-5.252,1.826,5.569,5.569,0,0,1-3.849-1.439,4.341,4.341,0,0,1-1.555-3.24,4.159,4.159,0,0,1,1.117-2.8,3.572,3.572,0,0,1,2.586-1.2,3.291,3.291,0,0,1,1.19.229,1.987,1.987,0,0,1,1.378,1.919,2.319,2.319,0,0,1-.483,1.421,1.51,1.51,0,0,1-1.134.594,2.571,2.571,0,0,1-2.551-1.685,3.415,3.415,0,0,0-.372,1.519,3.127,3.127,0,0,0,1.137,2.392,4.442,4.442,0,0,0,2.908.968,6.718,6.718,0,0,0,1.273-.128,5.106,5.106,0,0,0,3.917-4.553,4.608,4.608,0,0,0,1.716.287,20,20,0,0,0,2.264-.206,16.1,16.1,0,0,0-.078-2.727,3.453,3.453,0,0,0-.337-.863,15.3,15.3,0,0,0,5.232-1.062c.651-.279,3.076-1.733,3.076-1.733a6.973,6.973,0,0,0-1.55-.1h0q-7.807-.015-15.614-.043a7.432,7.432,0,0,0-1.185-.1h-.073a8.951,8.951,0,0,0-1.182.093h-.151v.02a9.541,9.541,0,0,0-5.044,2.435,3.712,3.712,0,0,0-2.835-2.392,4.237,4.237,0,0,0-1.987,2.684,19.562,19.562,0,0,0-4.125-1.829,14.559,14.559,0,0,0-3.086-.2,14.72,14.72,0,0,0,.2,3.087,19.693,19.693,0,0,0,1.829,4.125,4.221,4.221,0,0,0-2.682,1.987,3.707,3.707,0,0,0,2.39,2.835,9.541,9.541,0,0,0-2.435,5.044l-.02,0v.148a8.53,8.53,0,0,0-.091,1.182l0,.073a7.457,7.457,0,0,0,.1,1.185q.03,7.8.04,15.611h0a6.883,6.883,0,0,0,.1,1.552s1.454-2.427,1.733-3.079a15.369,15.369,0,0,0,1.062-5.232,3.334,3.334,0,0,0,.86.335,15.7,15.7,0,0,0,2.732.08,20.089,20.089,0,0,0,.2-2.264,4.555,4.555,0,0,0-.284-1.716,5.1,5.1,0,0,0,4.55-3.917,6.536,6.536,0,0,0,.133-1.273,4.431,4.431,0,0,0-.971-2.905,3.111,3.111,0,0,0-2.392-1.137,3.411,3.411,0,0,0-1.519.37,2.573,2.573,0,0,1,1.688,2.553,1.517,1.517,0,0,1-.6,1.132,2.317,2.317,0,0,1-1.419.483,1.994,1.994,0,0,1-1.922-1.378,3.221,3.221,0,0,1-.229-1.19,3.572,3.572,0,0,1,1.2-2.586,4.147,4.147,0,0,1,2.8-1.117,4.341,4.341,0,0,1,3.24,1.555,5.556,5.556,0,0,1,1.439,3.849,9.346,9.346,0,0,1-1.826,5.252c-2.468,3.517-5.315,5.914-7.494,9.725a24.4,24.4,0,0,0-2.767,8.714s-.314,2.707-.314,4.062c0,1.371-.005,2.739-.005,4.113-.03.732-.045,1.456-.045,2.168,0,.75.015,1.482.038,2.193q-.019,16.285-.118,32.568s3.074-1.655,3.167-9.436a29.107,29.107,0,0,0-.885-7.24,3.212,3.212,0,0,0,1.927-1,3.338,3.338,0,0,0,.7-2.231c-.015-2.168-1.17-4.855-1.285-6.374.239-.322.488-.636.755-.938a9.894,9.894,0,0,1,7.189-3.653c2.9,0,3.834,1.207,3.834,1.207a4.226,4.226,0,0,0,.327-1.6,3.777,3.777,0,0,0-2.108-3.268,8.4,8.4,0,0,0-4.085-1.014,7.9,7.9,0,0,0-.956.053,8.356,8.356,0,0,0-1.248.254,4.392,4.392,0,0,0,.483-1.19c.252-1.23-.06-2.546.39-3.124l-.428-.375a2.561,2.561,0,0,0-1.756-.669,5,5,0,0,0-3.278,1.6c1.258-4.719,3.406-9.146,6.772-11.891a7.08,7.08,0,0,1,4.322-1.638c1.982.02,3.884,1.029,4.973,4.226a4.017,4.017,0,0,1,.211,1.29,4.608,4.608,0,0,1-1.313,3.144,4.1,4.1,0,0,1-2.91,1.351,3.193,3.193,0,0,1-1.718-.5c-1.25-.785-1.612-1.577-1.617-2.239a1.99,1.99,0,0,1,.626-1.4,1.939,1.939,0,0,1,1.288-.589,1.2,1.2,0,0,1,.873.44,3.055,3.055,0,0,1,.528,2.427,2.843,2.843,0,0,0,2.367-2.8,2.7,2.7,0,0,0-.081-.649,4.022,4.022,0,0,0-3.909-3.431,5.706,5.706,0,0,0-5.368,5.8,5.988,5.988,0,0,0,.033.664c.415,3.811,4.055,5.921,7.406,5.916a6.544,6.544,0,0,0,4.211-1.4,10.262,10.262,0,0,0,3.336-7.559,8.071,8.071,0,0,0-3.235-6.591,11.643,11.643,0,0,0-1.615-1.046c.586.035,1.182.06,1.768.06a7.781,7.781,0,0,0,4.012-.81l.1-.025a2.507,2.507,0,0,0,.2.284,2.747,2.747,0,0,0,2.126.9c.153,0,.307-.013.465-.03a2.167,2.167,0,0,0,1.607-.908,2.9,2.9,0,0,0,.44-1.653,6.834,6.834,0,0,0-.931-3.247,8.57,8.57,0,0,0-4.176-3.323,9.355,9.355,0,0,0-3.474-.679c-.3,0-.589.02-.88.045a3.631,3.631,0,0,0,.463-1.187,5.223,5.223,0,0,1,.853-2.367,12.358,12.358,0,0,0-2.536-.6,3.344,3.344,0,0,0-1.9.493c-.03.02-.058.045-.086.065.005-.171-.008-.342.013-.508A9.041,9.041,0,0,0,328.128,200.068Zm2.541,9.5.015.028a10.277,10.277,0,0,0-2.9,1.381,9.849,9.849,0,0,0,1.162-3.074h0a2.215,2.215,0,0,1,.838-1.524,2.4,2.4,0,0,1,1.381-.33c.423,0,.863.05,1.3.091a6.67,6.67,0,0,0-.523,1.726,2.154,2.154,0,0,1-1.273,1.7Zm6.963-6.963a2.162,2.162,0,0,1-1.7,1.275,6.509,6.509,0,0,0-1.726.521c-.04-.433-.093-.873-.093-1.3a2.423,2.423,0,0,1,.332-1.381,2.215,2.215,0,0,1,1.524-.838h0a9.84,9.84,0,0,0,3.074-1.16,10.231,10.231,0,0,0-1.381,2.893Zm-.49,11.888a2.66,2.66,0,0,0-.6,1.487,11.286,11.286,0,0,0-1.743-1.484,7.29,7.29,0,0,0-4.171-1.212c-.254,0-.508.013-.762.035a16.093,16.093,0,0,1,2.488-.249c.081,0,.166,0,.259,0a9.829,9.829,0,0,1,2.842.4,3.41,3.41,0,0,1,1.69,1.026Zm5.416-5.416a3.392,3.392,0,0,1-1.026-1.69,9.918,9.918,0,0,1-.4-2.845c0-.091,0-.176,0-.257a16.129,16.129,0,0,1,.249-2.49c-.023.257-.038.511-.038.765a7.3,7.3,0,0,0,1.217,4.171,11.008,11.008,0,0,0,1.482,1.743A2.653,2.653,0,0,0,342.557,209.081Zm-16.6,4.676-.025.015.018-.023.008.008ZM341.817,197.9l-.008-.008.023-.018Zm-2.123,20.207a2.545,2.545,0,0,1-.357.023,1.8,1.8,0,0,1-1.882-1.866,1.95,1.95,0,0,1,.792-1.693,3.715,3.715,0,0,0-2.515-1.99,10.775,10.775,0,0,0-3.124-.443c-.1,0-.191,0-.284,0a13.1,13.1,0,0,0-6.075,1.466,9.383,9.383,0,0,1,7.021-3.451,8.523,8.523,0,0,1,3.129.614,7.714,7.714,0,0,1,3.72,2.938,5.954,5.954,0,0,1,.8,2.77,1.99,1.99,0,0,1-.277,1.122,1.228,1.228,0,0,1-.946.508Zm6.472-6.472a1.226,1.226,0,0,1-.506.946,2,2,0,0,1-1.127.277,5.952,5.952,0,0,1-2.767-.8,7.714,7.714,0,0,1-2.938-3.72,8.47,8.47,0,0,1-.611-3.129,9.381,9.381,0,0,1,3.449-7.023,13.122,13.122,0,0,0-1.467,6.077c0,.093,0,.186,0,.282a10.767,10.767,0,0,0,.443,3.127,3.708,3.708,0,0,0,1.99,2.515,1.951,1.951,0,0,1,1.693-.792,1.8,1.8,0,0,1,1.867,1.882A3.016,3.016,0,0,1,346.166,211.634ZM332.9,217.779c-1.9,0-3.979-.274-5.411-.277-.106,0-.211,0-.312.005v.02c-.126-.005-.249-.015-.372-.015a9.908,9.908,0,0,0-5.4,1.733q.362-.43.732-.865l.013.008.03-.058,1.087-1.28a15.847,15.847,0,0,1,4.3-2.279,9.083,9.083,0,0,1,3.054-.553,6.361,6.361,0,0,1,3.642,1.054,8.229,8.229,0,0,1,2.045,1.917,7.5,7.5,0,0,1-3.413.591Zm12.945-12.942a7.458,7.458,0,0,1-.594,3.413,8.228,8.228,0,0,1-1.917-2.045,6.36,6.36,0,0,1-1.054-3.642,9.024,9.024,0,0,1,.556-3.054,15.832,15.832,0,0,1,2.277-4.3c.428-.362.853-.724,1.28-1.089a.579.579,0,0,1,.058-.025l-.008-.018.865-.73a9.915,9.915,0,0,0-1.733,5.4c0,.123.01.246.015.372h-.02c0,.1-.005.206-.005.314C345.565,200.858,345.842,202.938,345.842,204.837Zm-23.713,17.674c-4.11,3.391-6.43,8.937-7.594,14.547a4.613,4.613,0,0,0-.272.7v-.569A27.582,27.582,0,0,1,316.773,226c2.017-4.027,5.851-7.572,10.029-7.551a8.746,8.746,0,0,1,5.376,1.992,7.134,7.134,0,0,1,2.868,5.851,9.359,9.359,0,0,1-3,6.842,5.614,5.614,0,0,1-3.612,1.187c-3.011,0-6.163-1.894-6.477-5.079a5.428,5.428,0,0,1-.03-.568,4.97,4.97,0,0,1,1.441-3.522,4.373,4.373,0,0,1,3-1.346c1.313.02,2.48.724,3,2.724a1.736,1.736,0,0,1,.05.423,1.938,1.938,0,0,1-.626,1.409,3.381,3.381,0,0,0-.586-1.6,1.983,1.983,0,0,0-1.62-.812,3.006,3.006,0,0,0-2.847,2.923,3.674,3.674,0,0,0,2.06,3.031,4.129,4.129,0,0,0,2.209.639,5.492,5.492,0,0,0,5.157-5.431,5.014,5.014,0,0,0-.259-1.587c-1.137-3.489-3.517-4.885-5.858-4.862a7.987,7.987,0,0,0-4.915,1.849Zm28.443-28.445a8.006,8.006,0,0,0-1.849,4.918c-.023,2.342,1.374,4.722,4.862,5.861a5.083,5.083,0,0,0,1.585.259,5.5,5.5,0,0,0,5.433-5.159,4.144,4.144,0,0,0-.639-2.209,3.674,3.674,0,0,0-3.031-2.06,3.006,3.006,0,0,0-2.923,2.847,1.982,1.982,0,0,0,.813,1.617,3.354,3.354,0,0,0,1.6.586,1.922,1.922,0,0,1-1.409.629,1.607,1.607,0,0,1-.423-.05c-2-.521-2.7-1.69-2.724-3a4.354,4.354,0,0,1,1.348-3,4.959,4.959,0,0,1,3.519-1.441,5.447,5.447,0,0,1,.569.03c3.187.314,5.076,3.466,5.079,6.477a5.609,5.609,0,0,1-1.187,3.612,9.354,9.354,0,0,1-6.842,3,7.13,7.13,0,0,1-5.851-2.87,8.754,8.754,0,0,1-1.995-5.373c-.018-4.178,3.527-8.012,7.554-10.029a27.624,27.624,0,0,1,11.189-2.51h.568a4.607,4.607,0,0,0-.7.272C359.508,187.639,353.964,189.958,350.571,194.066Zm-30.457,43.41a4.692,4.692,0,0,1-1.318,2.138c-2.176,1.275-3.386,3.529-4.294,5.723a46.757,46.757,0,0,1,.923-7.979,5.881,5.881,0,0,1,1.021-1.416,4.283,4.283,0,0,1,2.782-1.482,1.623,1.623,0,0,1,1.082.392,6.026,6.026,0,0,0-.111,1.472,4.3,4.3,0,0,1-.086,1.152Zm45.422-45.422a4.19,4.19,0,0,1-1.152.086,6.046,6.046,0,0,0-1.471.111,1.621,1.621,0,0,1-.392-1.084,4.283,4.283,0,0,1,1.482-2.78,5.907,5.907,0,0,1,1.416-1.021,46.76,46.76,0,0,1,7.979-.923c-2.191.908-4.447,2.118-5.723,4.294A4.692,4.692,0,0,1,365.535,192.054Zm-40.761,50.264c-3.572.03-6.787,2.256-8.852,5.184l-.033,0v.045a13.736,13.736,0,0,0-1.59,2.988,12.631,12.631,0,0,1,.74-4.037c.933-2.359,2.01-4.674,4.035-5.962a1.516,1.516,0,0,0,.3-.186,7.014,7.014,0,0,1,3.366-.843,7.483,7.483,0,0,1,3.62.89,2.844,2.844,0,0,1,1.64,2.458c0,.033,0,.07-.008.106a8.52,8.52,0,0,0-3.22-.646Zm45.606-45.6a8.423,8.423,0,0,0,.646,3.217c-.038,0-.073.008-.108.008a2.84,2.84,0,0,1-2.458-1.64,7.483,7.483,0,0,1-.891-3.62,7.128,7.128,0,0,1,.048-.848,6.738,6.738,0,0,1,.792-2.518,1.4,1.4,0,0,0,.186-.3c1.29-2.027,3.6-3.1,5.964-4.035a12.632,12.632,0,0,1,4.037-.74,13.776,13.776,0,0,0-2.988,1.587h-.045v.035C372.634,189.928,370.408,193.143,370.38,196.717ZM316.7,255.841a2.322,2.322,0,0,1-1.456.7c-.262-.936-.536-1.877-.74-2.8a11.1,11.1,0,0,1,1.572-4.759c.362,1.683,1.117,3.693,1.1,5.232a2.4,2.4,0,0,1-.48,1.622Zm67.2-67.2a2.4,2.4,0,0,1-1.622.478c-1.54.015-3.549-.74-5.232-1.1a11.111,11.111,0,0,1,4.759-1.572c.923.2,1.864.48,2.8.74A2.322,2.322,0,0,1,383.9,188.643ZM315.437,264.69a17.094,17.094,0,0,1-1.26,6.887c.033-5.225.028-10,.048-15.224.058.209.118.418.174.624a29.533,29.533,0,0,1,1.039,7.712Zm77.313-77.313a29.64,29.64,0,0,1-7.712-1.036c-.206-.058-.415-.118-.624-.176,5.225-.018,10-.015,15.224-.05A17.06,17.06,0,0,1,392.75,187.377Zm-74.113,23.449a2.983,2.983,0,0,1,.445,1.781,12.034,12.034,0,0,1-.108,1.434,7.37,7.37,0,0,1-1.668-.153,1.562,1.562,0,0,1-1.092-.714,11.421,11.421,0,0,0-1.084-4.025,6.769,6.769,0,0,0,3.507,1.678Zm20.25-20.247a6.777,6.777,0,0,0-1.678-3.512,11.475,11.475,0,0,0,4.025,1.089,1.544,1.544,0,0,1,.712,1.089,7.381,7.381,0,0,1,.156,1.668,12.588,12.588,0,0,1-1.434.108A3,3,0,0,1,338.887,190.58ZM314.3,219.341c-.01.028-.028.063-.04.093q-.008-5.011-.025-10.019a10.262,10.262,0,0,1,1.074,4.128c0,.023,0,.048,0,.075a15,15,0,0,1-1.009,5.723ZM347.4,186.235a14.993,14.993,0,0,1-5.723,1.009H341.6a10.3,10.3,0,0,1-4.128-1.074q5.011.011,10.019.025C347.464,186.208,347.429,186.225,347.4,186.235Zm-31.423,12.874a6.029,6.029,0,0,1,4.7-2.445,6.809,6.809,0,0,1,3.346.956,7.969,7.969,0,0,1,4.234,7.546,16.114,16.114,0,0,1-.221,2.561h0l0,.015c-.352,2.216-2.251,4.852-4.513,7.559q-.449.54-.911,1.082a5.2,5.2,0,0,0-1.187,1.4,42.62,42.62,0,0,0-5.484,7.8,17.926,17.926,0,0,0-1.341,3.4,23.425,23.425,0,0,1,2.631-8.208c2.07-3.64,4.883-6.017,7.446-9.649a10.259,10.259,0,0,0,1.995-5.786,6.5,6.5,0,0,0-1.683-4.483,5.288,5.288,0,0,0-3.929-1.859,4.9,4.9,0,0,0-4.935,4.639,4.2,4.2,0,0,0,.292,1.529,2.939,2.939,0,0,0,2.792,1.972,2.8,2.8,0,0,0,2.948-2.548,3.028,3.028,0,0,0-.84-1.962c1.155.146,2.151,1.225,2.166,3.081a5.527,5.527,0,0,1-.113,1.089,4.176,4.176,0,0,1-3.924,3.18,2.98,2.98,0,0,1-.556-.048,5.227,5.227,0,0,1-4.669-4.467c0-.747,0-1.494-.005-2.241a8.718,8.718,0,0,1,1.766-4.105Zm11.191-11.191a8.708,8.708,0,0,1,4.105-1.766l2.241.005a5.227,5.227,0,0,1,4.468,4.669,2.987,2.987,0,0,1,.05.556,4.181,4.181,0,0,1-3.182,3.924,5.532,5.532,0,0,1-1.089.113c-1.856-.015-2.936-1.009-3.079-2.166a3.021,3.021,0,0,0,1.957.84,2.8,2.8,0,0,0,2.551-2.948,2.94,2.94,0,0,0-1.97-2.792,4.218,4.218,0,0,0-1.532-.292A4.891,4.891,0,0,0,327.054,193a5.288,5.288,0,0,0,1.856,3.929,6.49,6.49,0,0,0,4.48,1.683,10.259,10.259,0,0,0,5.791-2c3.63-2.561,6.01-5.373,9.649-7.443a23.444,23.444,0,0,1,8.206-2.631,17.926,17.926,0,0,0-3.4,1.341,42.577,42.577,0,0,0-7.8,5.481,5.209,5.209,0,0,0-1.4,1.19c-.36.307-.722.611-1.082.911-2.707,2.259-5.343,4.161-7.559,4.513l-.015,0h0a16.138,16.138,0,0,1-2.563.224,7.974,7.974,0,0,1-7.544-4.236,6.8,6.8,0,0,1-.956-3.346A6.029,6.029,0,0,1,327.169,187.918Zm-12.877,7.461c.616-.928,1.233-1.026,2.251-1.429a7.751,7.751,0,0,0,2.1,2.131,6.917,6.917,0,0,0-2.178,1.215c-1.021-.5-1.995-1.016-2.176-1.917Zm9.146-9.146c.9.181,1.416,1.155,1.917,2.176a6.863,6.863,0,0,0-1.212,2.178,7.794,7.794,0,0,0-2.133-2.1C322.413,187.465,322.511,186.849,323.439,186.233Zm-8.349,2.513a8.971,8.971,0,0,1-.269-1.253c2.395,2.45,5.786,5.889,8.626,8.814a7.28,7.28,0,0,0-2.77-.576c-.138,0-.272.018-.41.028-1.167-.191-2.312-1.306-3.22-2.729a18.362,18.362,0,0,1-1.957-4.284Zm1.716-1.716a18.5,18.5,0,0,1,4.284,1.955c1.424.911,2.536,2.055,2.729,3.222-.01.138-.028.272-.028.41a7.279,7.279,0,0,0,.576,2.77c-2.926-2.84-6.364-6.231-8.814-8.626A9.329,9.329,0,0,1,316.806,187.03Z" transform="translate(-148.745 1352.186) rotate(-90)" fill="#cbbba0"/>
      <path id="Tracé_70138" data-name="Tracé 70138" d="M328.128,200.068a9.035,9.035,0,0,0,5.1,1.064c.166-.02.337-.008.508-.013l-.065.086a3.322,3.322,0,0,0-.49,1.9,12.233,12.233,0,0,0,.6,2.536,5.252,5.252,0,0,1,2.367-.853,3.752,3.752,0,0,0,1.19-.465,8.584,8.584,0,0,0-.048.883,9.376,9.376,0,0,0,.679,3.476,8.575,8.575,0,0,0,3.323,4.173,6.835,6.835,0,0,0,3.248.931,2.9,2.9,0,0,0,1.653-.44,2.167,2.167,0,0,0,.908-1.607,4.18,4.18,0,0,0,.028-.463,2.734,2.734,0,0,0-.9-2.126,2.025,2.025,0,0,0-.284-.2l.025-.1a7.786,7.786,0,0,0,.81-4.012c0-.586-.028-1.182-.06-1.768a11.633,11.633,0,0,0,1.046,1.615,8.088,8.088,0,0,0,6.591,3.237,10.277,10.277,0,0,0,7.559-3.338,6.528,6.528,0,0,0,1.4-4.208c.005-3.356-2.105-6.993-5.916-7.408a6,6,0,0,0-.664-.035,5.711,5.711,0,0,0-5.8,5.371,4.016,4.016,0,0,0,3.431,3.907,2.469,2.469,0,0,0,.649.08,2.839,2.839,0,0,0,2.8-2.365,3.047,3.047,0,0,1-2.425-.528,1.2,1.2,0,0,1-.443-.873,1.916,1.916,0,0,1,.589-1.288,2,2,0,0,1,1.4-.626c.662.005,1.456.367,2.239,1.617a3.215,3.215,0,0,1,.5,1.718,4.11,4.11,0,0,1-1.348,2.91,4.631,4.631,0,0,1-3.149,1.313,4.015,4.015,0,0,1-1.288-.211c-3.2-1.089-4.2-2.993-4.226-4.973a7.093,7.093,0,0,1,1.638-4.324c2.744-3.363,7.172-5.511,11.888-6.769a5.006,5.006,0,0,0-1.595,3.275,2.573,2.573,0,0,0,.669,1.761l.375.423c.578-.445,1.894-.136,3.124-.387a4.475,4.475,0,0,0,1.19-.483,8.791,8.791,0,0,0-.254,1.245,8.537,8.537,0,0,0-.053.958,8.416,8.416,0,0,0,1.014,4.088,3.774,3.774,0,0,0,3.268,2.105,4.234,4.234,0,0,0,1.6-.327s-1.2-.933-1.207-3.831a9.9,9.9,0,0,1,3.652-7.192q.453-.4.936-.752c1.522.113,4.206,1.265,6.377,1.283a3.339,3.339,0,0,0,2.231-.7,3.2,3.2,0,0,0,1-1.927,29.239,29.239,0,0,0,7.24.885c7.78-.093,9.435-3.167,9.435-3.167q-16.281.109-32.568.118c-.712-.023-1.444-.038-2.193-.038-.712,0-1.436.015-2.168.045-1.373,0-2.742.005-4.113.005-1.353,0-4.063.314-4.063.314a24.4,24.4,0,0,0-8.714,2.767c-3.811,2.178-6.208,5.026-9.725,7.494a9.365,9.365,0,0,1-5.252,1.826,5.569,5.569,0,0,1-3.849-1.439,4.341,4.341,0,0,1-1.555-3.24,4.159,4.159,0,0,1,1.117-2.8,3.572,3.572,0,0,1,2.586-1.2,3.291,3.291,0,0,1,1.19.229,1.987,1.987,0,0,1,1.378,1.919,2.319,2.319,0,0,1-.483,1.421,1.51,1.51,0,0,1-1.134.594,2.571,2.571,0,0,1-2.551-1.685,3.415,3.415,0,0,0-.372,1.519,3.127,3.127,0,0,0,1.137,2.392,4.442,4.442,0,0,0,2.908.968,6.718,6.718,0,0,0,1.273-.128,5.106,5.106,0,0,0,3.917-4.553,4.608,4.608,0,0,0,1.716.287,20,20,0,0,0,2.264-.206,16.1,16.1,0,0,0-.078-2.727,3.453,3.453,0,0,0-.337-.863,15.3,15.3,0,0,0,5.232-1.062c.651-.279,3.076-1.733,3.076-1.733a6.973,6.973,0,0,0-1.55-.1h0q-7.807-.015-15.614-.043a7.432,7.432,0,0,0-1.185-.1h-.073a8.951,8.951,0,0,0-1.182.093h-.151v.02a9.541,9.541,0,0,0-5.044,2.435,3.712,3.712,0,0,0-2.835-2.392,4.237,4.237,0,0,0-1.987,2.684,19.562,19.562,0,0,0-4.125-1.829,14.559,14.559,0,0,0-3.086-.2,14.72,14.72,0,0,0,.2,3.087,19.693,19.693,0,0,0,1.829,4.125,4.221,4.221,0,0,0-2.682,1.987,3.707,3.707,0,0,0,2.39,2.835,9.541,9.541,0,0,0-2.435,5.044l-.02,0v.148a8.53,8.53,0,0,0-.091,1.182l0,.073a7.457,7.457,0,0,0,.1,1.185q.03,7.8.04,15.611h0a6.883,6.883,0,0,0,.1,1.552s1.454-2.427,1.733-3.079a15.369,15.369,0,0,0,1.062-5.232,3.334,3.334,0,0,0,.86.335,15.7,15.7,0,0,0,2.732.08,20.089,20.089,0,0,0,.2-2.264,4.555,4.555,0,0,0-.284-1.716,5.1,5.1,0,0,0,4.55-3.917,6.536,6.536,0,0,0,.133-1.273,4.431,4.431,0,0,0-.971-2.905,3.111,3.111,0,0,0-2.392-1.137,3.411,3.411,0,0,0-1.519.37,2.573,2.573,0,0,1,1.688,2.553,1.517,1.517,0,0,1-.6,1.132,2.317,2.317,0,0,1-1.419.483,1.994,1.994,0,0,1-1.922-1.378,3.221,3.221,0,0,1-.229-1.19,3.572,3.572,0,0,1,1.2-2.586,4.147,4.147,0,0,1,2.8-1.117,4.341,4.341,0,0,1,3.24,1.555,5.556,5.556,0,0,1,1.439,3.849,9.346,9.346,0,0,1-1.826,5.252c-2.468,3.517-5.315,5.914-7.494,9.725a24.4,24.4,0,0,0-2.767,8.714s-.314,2.707-.314,4.062c0,1.371-.005,2.739-.005,4.113-.03.732-.045,1.456-.045,2.168,0,.75.015,1.482.038,2.193q-.019,16.285-.118,32.568s3.074-1.655,3.167-9.436a29.107,29.107,0,0,0-.885-7.24,3.212,3.212,0,0,0,1.927-1,3.338,3.338,0,0,0,.7-2.231c-.015-2.168-1.17-4.855-1.285-6.374.239-.322.488-.636.755-.938a9.894,9.894,0,0,1,7.189-3.653c2.9,0,3.834,1.207,3.834,1.207a4.226,4.226,0,0,0,.327-1.6,3.777,3.777,0,0,0-2.108-3.268,8.4,8.4,0,0,0-4.085-1.014,7.9,7.9,0,0,0-.956.053,8.356,8.356,0,0,0-1.248.254,4.392,4.392,0,0,0,.483-1.19c.252-1.23-.06-2.546.39-3.124l-.428-.375a2.561,2.561,0,0,0-1.756-.669,5,5,0,0,0-3.278,1.6c1.258-4.719,3.406-9.146,6.772-11.891a7.08,7.08,0,0,1,4.322-1.638c1.982.02,3.884,1.029,4.973,4.226a4.017,4.017,0,0,1,.211,1.29,4.608,4.608,0,0,1-1.313,3.144,4.1,4.1,0,0,1-2.91,1.351,3.193,3.193,0,0,1-1.718-.5c-1.25-.785-1.612-1.577-1.617-2.239a1.99,1.99,0,0,1,.626-1.4,1.939,1.939,0,0,1,1.288-.589,1.2,1.2,0,0,1,.873.44,3.055,3.055,0,0,1,.528,2.427,2.843,2.843,0,0,0,2.367-2.8,2.7,2.7,0,0,0-.081-.649,4.022,4.022,0,0,0-3.909-3.431,5.706,5.706,0,0,0-5.368,5.8,5.988,5.988,0,0,0,.033.664c.415,3.811,4.055,5.921,7.406,5.916a6.544,6.544,0,0,0,4.211-1.4,10.262,10.262,0,0,0,3.336-7.559,8.071,8.071,0,0,0-3.235-6.591,11.643,11.643,0,0,0-1.615-1.046c.586.035,1.182.06,1.768.06a7.781,7.781,0,0,0,4.012-.81l.1-.025a2.507,2.507,0,0,0,.2.284,2.747,2.747,0,0,0,2.126.9c.153,0,.307-.013.465-.03a2.167,2.167,0,0,0,1.607-.908,2.9,2.9,0,0,0,.44-1.653,6.834,6.834,0,0,0-.931-3.247,8.57,8.57,0,0,0-4.176-3.323,9.355,9.355,0,0,0-3.474-.679c-.3,0-.589.02-.88.045a3.631,3.631,0,0,0,.463-1.187,5.223,5.223,0,0,1,.853-2.367,12.358,12.358,0,0,0-2.536-.6,3.344,3.344,0,0,0-1.9.493c-.03.02-.058.045-.086.065.005-.171-.008-.342.013-.508A9.041,9.041,0,0,0,328.128,200.068Zm2.541,9.5.015.028a10.277,10.277,0,0,0-2.9,1.381,9.849,9.849,0,0,0,1.162-3.074h0a2.215,2.215,0,0,1,.838-1.524,2.4,2.4,0,0,1,1.381-.33c.423,0,.863.05,1.3.091a6.67,6.67,0,0,0-.523,1.726,2.154,2.154,0,0,1-1.273,1.7Zm6.963-6.963a2.162,2.162,0,0,1-1.7,1.275,6.509,6.509,0,0,0-1.726.521c-.04-.433-.093-.873-.093-1.3a2.423,2.423,0,0,1,.332-1.381,2.215,2.215,0,0,1,1.524-.838h0a9.84,9.84,0,0,0,3.074-1.16,10.231,10.231,0,0,0-1.381,2.893Zm-.49,11.888a2.66,2.66,0,0,0-.6,1.487,11.286,11.286,0,0,0-1.743-1.484,7.29,7.29,0,0,0-4.171-1.212c-.254,0-.508.013-.762.035a16.093,16.093,0,0,1,2.488-.249c.081,0,.166,0,.259,0a9.829,9.829,0,0,1,2.842.4,3.41,3.41,0,0,1,1.69,1.026Zm5.416-5.416a3.392,3.392,0,0,1-1.026-1.69,9.918,9.918,0,0,1-.4-2.845c0-.091,0-.176,0-.257a16.129,16.129,0,0,1,.249-2.49c-.023.257-.038.511-.038.765a7.3,7.3,0,0,0,1.217,4.171,11.008,11.008,0,0,0,1.482,1.743A2.653,2.653,0,0,0,342.557,209.081Zm-16.6,4.676-.025.015.018-.023.008.008ZM341.817,197.9l-.008-.008.023-.018Zm-2.123,20.207a2.545,2.545,0,0,1-.357.023,1.8,1.8,0,0,1-1.882-1.866,1.95,1.95,0,0,1,.792-1.693,3.715,3.715,0,0,0-2.515-1.99,10.775,10.775,0,0,0-3.124-.443c-.1,0-.191,0-.284,0a13.1,13.1,0,0,0-6.075,1.466,9.383,9.383,0,0,1,7.021-3.451,8.523,8.523,0,0,1,3.129.614,7.714,7.714,0,0,1,3.72,2.938,5.954,5.954,0,0,1,.8,2.77,1.99,1.99,0,0,1-.277,1.122,1.228,1.228,0,0,1-.946.508Zm6.472-6.472a1.226,1.226,0,0,1-.506.946,2,2,0,0,1-1.127.277,5.952,5.952,0,0,1-2.767-.8,7.714,7.714,0,0,1-2.938-3.72,8.47,8.47,0,0,1-.611-3.129,9.381,9.381,0,0,1,3.449-7.023,13.122,13.122,0,0,0-1.467,6.077c0,.093,0,.186,0,.282a10.767,10.767,0,0,0,.443,3.127,3.708,3.708,0,0,0,1.99,2.515,1.951,1.951,0,0,1,1.693-.792,1.8,1.8,0,0,1,1.867,1.882A3.016,3.016,0,0,1,346.166,211.634ZM332.9,217.779c-1.9,0-3.979-.274-5.411-.277-.106,0-.211,0-.312.005v.02c-.126-.005-.249-.015-.372-.015a9.908,9.908,0,0,0-5.4,1.733q.362-.43.732-.865l.013.008.03-.058,1.087-1.28a15.847,15.847,0,0,1,4.3-2.279,9.083,9.083,0,0,1,3.054-.553,6.361,6.361,0,0,1,3.642,1.054,8.229,8.229,0,0,1,2.045,1.917,7.5,7.5,0,0,1-3.413.591Zm12.945-12.942a7.458,7.458,0,0,1-.594,3.413,8.228,8.228,0,0,1-1.917-2.045,6.36,6.36,0,0,1-1.054-3.642,9.024,9.024,0,0,1,.556-3.054,15.832,15.832,0,0,1,2.277-4.3c.428-.362.853-.724,1.28-1.089a.579.579,0,0,1,.058-.025l-.008-.018.865-.73a9.915,9.915,0,0,0-1.733,5.4c0,.123.01.246.015.372h-.02c0,.1-.005.206-.005.314C345.565,200.858,345.842,202.938,345.842,204.837Zm-23.713,17.674c-4.11,3.391-6.43,8.937-7.594,14.547a4.613,4.613,0,0,0-.272.7v-.569A27.582,27.582,0,0,1,316.773,226c2.017-4.027,5.851-7.572,10.029-7.551a8.746,8.746,0,0,1,5.376,1.992,7.134,7.134,0,0,1,2.868,5.851,9.359,9.359,0,0,1-3,6.842,5.614,5.614,0,0,1-3.612,1.187c-3.011,0-6.163-1.894-6.477-5.079a5.428,5.428,0,0,1-.03-.568,4.97,4.97,0,0,1,1.441-3.522,4.373,4.373,0,0,1,3-1.346c1.313.02,2.48.724,3,2.724a1.736,1.736,0,0,1,.05.423,1.938,1.938,0,0,1-.626,1.409,3.381,3.381,0,0,0-.586-1.6,1.983,1.983,0,0,0-1.62-.812,3.006,3.006,0,0,0-2.847,2.923,3.674,3.674,0,0,0,2.06,3.031,4.129,4.129,0,0,0,2.209.639,5.492,5.492,0,0,0,5.157-5.431,5.014,5.014,0,0,0-.259-1.587c-1.137-3.489-3.517-4.885-5.858-4.862a7.987,7.987,0,0,0-4.915,1.849Zm28.443-28.445a8.006,8.006,0,0,0-1.849,4.918c-.023,2.342,1.374,4.722,4.862,5.861a5.083,5.083,0,0,0,1.585.259,5.5,5.5,0,0,0,5.433-5.159,4.144,4.144,0,0,0-.639-2.209,3.674,3.674,0,0,0-3.031-2.06,3.006,3.006,0,0,0-2.923,2.847,1.982,1.982,0,0,0,.813,1.617,3.354,3.354,0,0,0,1.6.586,1.922,1.922,0,0,1-1.409.629,1.607,1.607,0,0,1-.423-.05c-2-.521-2.7-1.69-2.724-3a4.354,4.354,0,0,1,1.348-3,4.959,4.959,0,0,1,3.519-1.441,5.447,5.447,0,0,1,.569.03c3.187.314,5.076,3.466,5.079,6.477a5.609,5.609,0,0,1-1.187,3.612,9.354,9.354,0,0,1-6.842,3,7.13,7.13,0,0,1-5.851-2.87,8.754,8.754,0,0,1-1.995-5.373c-.018-4.178,3.527-8.012,7.554-10.029a27.624,27.624,0,0,1,11.189-2.51h.568a4.607,4.607,0,0,0-.7.272C359.508,187.639,353.964,189.958,350.571,194.066Zm-30.457,43.41a4.692,4.692,0,0,1-1.318,2.138c-2.176,1.275-3.386,3.529-4.294,5.723a46.757,46.757,0,0,1,.923-7.979,5.881,5.881,0,0,1,1.021-1.416,4.283,4.283,0,0,1,2.782-1.482,1.623,1.623,0,0,1,1.082.392,6.026,6.026,0,0,0-.111,1.472,4.3,4.3,0,0,1-.086,1.152Zm45.422-45.422a4.19,4.19,0,0,1-1.152.086,6.046,6.046,0,0,0-1.471.111,1.621,1.621,0,0,1-.392-1.084,4.283,4.283,0,0,1,1.482-2.78,5.907,5.907,0,0,1,1.416-1.021,46.76,46.76,0,0,1,7.979-.923c-2.191.908-4.447,2.118-5.723,4.294A4.692,4.692,0,0,1,365.535,192.054Zm-40.761,50.264c-3.572.03-6.787,2.256-8.852,5.184l-.033,0v.045a13.736,13.736,0,0,0-1.59,2.988,12.631,12.631,0,0,1,.74-4.037c.933-2.359,2.01-4.674,4.035-5.962a1.516,1.516,0,0,0,.3-.186,7.014,7.014,0,0,1,3.366-.843,7.483,7.483,0,0,1,3.62.89,2.844,2.844,0,0,1,1.64,2.458c0,.033,0,.07-.008.106a8.52,8.52,0,0,0-3.22-.646Zm45.606-45.6a8.423,8.423,0,0,0,.646,3.217c-.038,0-.073.008-.108.008a2.84,2.84,0,0,1-2.458-1.64,7.483,7.483,0,0,1-.891-3.62,7.128,7.128,0,0,1,.048-.848,6.738,6.738,0,0,1,.792-2.518,1.4,1.4,0,0,0,.186-.3c1.29-2.027,3.6-3.1,5.964-4.035a12.632,12.632,0,0,1,4.037-.74,13.776,13.776,0,0,0-2.988,1.587h-.045v.035C372.634,189.928,370.408,193.143,370.38,196.717ZM316.7,255.841a2.322,2.322,0,0,1-1.456.7c-.262-.936-.536-1.877-.74-2.8a11.1,11.1,0,0,1,1.572-4.759c.362,1.683,1.117,3.693,1.1,5.232a2.4,2.4,0,0,1-.48,1.622Zm67.2-67.2a2.4,2.4,0,0,1-1.622.478c-1.54.015-3.549-.74-5.232-1.1a11.111,11.111,0,0,1,4.759-1.572c.923.2,1.864.48,2.8.74A2.322,2.322,0,0,1,383.9,188.643ZM315.437,264.69a17.094,17.094,0,0,1-1.26,6.887c.033-5.225.028-10,.048-15.224.058.209.118.418.174.624a29.533,29.533,0,0,1,1.039,7.712Zm77.313-77.313a29.64,29.64,0,0,1-7.712-1.036c-.206-.058-.415-.118-.624-.176,5.225-.018,10-.015,15.224-.05A17.06,17.06,0,0,1,392.75,187.377Zm-74.113,23.449a2.983,2.983,0,0,1,.445,1.781,12.034,12.034,0,0,1-.108,1.434,7.37,7.37,0,0,1-1.668-.153,1.562,1.562,0,0,1-1.092-.714,11.421,11.421,0,0,0-1.084-4.025,6.769,6.769,0,0,0,3.507,1.678Zm20.25-20.247a6.777,6.777,0,0,0-1.678-3.512,11.475,11.475,0,0,0,4.025,1.089,1.544,1.544,0,0,1,.712,1.089,7.381,7.381,0,0,1,.156,1.668,12.588,12.588,0,0,1-1.434.108A3,3,0,0,1,338.887,190.58ZM314.3,219.341c-.01.028-.028.063-.04.093q-.008-5.011-.025-10.019a10.262,10.262,0,0,1,1.074,4.128c0,.023,0,.048,0,.075a15,15,0,0,1-1.009,5.723ZM347.4,186.235a14.993,14.993,0,0,1-5.723,1.009H341.6a10.3,10.3,0,0,1-4.128-1.074q5.011.011,10.019.025C347.464,186.208,347.429,186.225,347.4,186.235Zm-31.423,12.874a6.029,6.029,0,0,1,4.7-2.445,6.809,6.809,0,0,1,3.346.956,7.969,7.969,0,0,1,4.234,7.546,16.114,16.114,0,0,1-.221,2.561h0l0,.015c-.352,2.216-2.251,4.852-4.513,7.559q-.449.54-.911,1.082a5.2,5.2,0,0,0-1.187,1.4,42.62,42.62,0,0,0-5.484,7.8,17.926,17.926,0,0,0-1.341,3.4,23.425,23.425,0,0,1,2.631-8.208c2.07-3.64,4.883-6.017,7.446-9.649a10.259,10.259,0,0,0,1.995-5.786,6.5,6.5,0,0,0-1.683-4.483,5.288,5.288,0,0,0-3.929-1.859,4.9,4.9,0,0,0-4.935,4.639,4.2,4.2,0,0,0,.292,1.529,2.939,2.939,0,0,0,2.792,1.972,2.8,2.8,0,0,0,2.948-2.548,3.028,3.028,0,0,0-.84-1.962c1.155.146,2.151,1.225,2.166,3.081a5.527,5.527,0,0,1-.113,1.089,4.176,4.176,0,0,1-3.924,3.18,2.98,2.98,0,0,1-.556-.048,5.227,5.227,0,0,1-4.669-4.467c0-.747,0-1.494-.005-2.241a8.718,8.718,0,0,1,1.766-4.105Zm11.191-11.191a8.708,8.708,0,0,1,4.105-1.766l2.241.005a5.227,5.227,0,0,1,4.468,4.669,2.987,2.987,0,0,1,.05.556,4.181,4.181,0,0,1-3.182,3.924,5.532,5.532,0,0,1-1.089.113c-1.856-.015-2.936-1.009-3.079-2.166a3.021,3.021,0,0,0,1.957.84,2.8,2.8,0,0,0,2.551-2.948,2.94,2.94,0,0,0-1.97-2.792,4.218,4.218,0,0,0-1.532-.292A4.891,4.891,0,0,0,327.054,193a5.288,5.288,0,0,0,1.856,3.929,6.49,6.49,0,0,0,4.48,1.683,10.259,10.259,0,0,0,5.791-2c3.63-2.561,6.01-5.373,9.649-7.443a23.444,23.444,0,0,1,8.206-2.631,17.926,17.926,0,0,0-3.4,1.341,42.577,42.577,0,0,0-7.8,5.481,5.209,5.209,0,0,0-1.4,1.19c-.36.307-.722.611-1.082.911-2.707,2.259-5.343,4.161-7.559,4.513l-.015,0h0a16.138,16.138,0,0,1-2.563.224,7.974,7.974,0,0,1-7.544-4.236,6.8,6.8,0,0,1-.956-3.346A6.029,6.029,0,0,1,327.169,187.918Zm-12.877,7.461c.616-.928,1.233-1.026,2.251-1.429a7.751,7.751,0,0,0,2.1,2.131,6.917,6.917,0,0,0-2.178,1.215c-1.021-.5-1.995-1.016-2.176-1.917Zm9.146-9.146c.9.181,1.416,1.155,1.917,2.176a6.863,6.863,0,0,0-1.212,2.178,7.794,7.794,0,0,0-2.133-2.1C322.413,187.465,322.511,186.849,323.439,186.233Zm-8.349,2.513a8.971,8.971,0,0,1-.269-1.253c2.395,2.45,5.786,5.889,8.626,8.814a7.28,7.28,0,0,0-2.77-.576c-.138,0-.272.018-.41.028-1.167-.191-2.312-1.306-3.22-2.729a18.362,18.362,0,0,1-1.957-4.284Zm1.716-1.716a18.5,18.5,0,0,1,4.284,1.955c1.424.911,2.536,2.055,2.729,3.222-.01.138-.028.272-.028.41a7.279,7.279,0,0,0,.576,2.77c-2.926-2.84-6.364-6.231-8.814-8.626A9.329,9.329,0,0,1,316.806,187.03Z" transform="translate(2196.567 1224.126) rotate(180)" fill="#cbbba0"/>
    </g>
  </g>
</svg>
