<svg id="Groupe_218" data-name="Groupe 218" xmlns="http://www.w3.org/2000/svg" width="42.541" height="40.984" viewBox="0 0 42.541 40.984">
  <path id="Tracé_136953" data-name="Tracé 136953" d="M341.419,169.036c-.683.063-1.366.146-2.052.221-.476.055-.95.109-1.486.166.112.106.181.172.255.238.795.723,1.593,1.449,2.391,2.169a.394.394,0,0,1,.146.436c-.115.5-.212,1-.316,1.507-.135.648-.27,1.3-.413,1.98.1-.055.172-.086.238-.126.941-.537,1.885-1.068,2.818-1.616a.487.487,0,0,1,.565.006c.915.534,1.837,1.056,2.755,1.581.08.046.161.086.27.143-.009-.072-.009-.112-.017-.146-.23-1.09-.453-2.181-.689-3.271a.5.5,0,0,1,.169-.54c.806-.712,1.6-1.441,2.393-2.167.06-.055.115-.112.2-.2l-.192-.023c-1.116-.123-2.23-.253-3.346-.364a.423.423,0,0,1-.382-.293c-.448-1.01-.907-2.02-1.36-3.027-.029-.06-.063-.118-.106-.2-.04.086-.072.141-.1.2-.453,1.01-.91,2.017-1.357,3.03A.421.421,0,0,1,341.419,169.036Z" transform="translate(-322.019 -152.551)" fill="#cbbba0"/>
  <path id="Tracé_136954" data-name="Tracé 136954" d="M337.349,175.2a.671.671,0,0,0,.212.092q3.228,1.055,6.454,2.1a.771.771,0,0,0,.321.043c1.228-.129,2.454-.27,3.682-.4a.3.3,0,0,0,.278-.2c.5-1.134,1.016-2.264,1.521-3.4a.711.711,0,0,0,.06-.3q.009-3.4,0-6.792a.752.752,0,0,0-.063-.319c-.3-.608-.58-1.234-.938-1.808a6.394,6.394,0,0,0-3.946-2.987,9.209,9.209,0,0,0-4.462.086,7.806,7.806,0,0,1-2.1.359c-.471-.017-.938-.089-1.435-.141,0,.023-.014.06-.017.1a5.413,5.413,0,0,1-.933,2.7,17.215,17.215,0,0,0-.984,1.73,6.88,6.88,0,0,0-.56,4.89A8.362,8.362,0,0,0,337.349,175.2Zm7.8-7.214c.086-.585.172-1.171.273-1.756a.427.427,0,0,1,.181-.29c.066-.032.221.055.3.129q1.33,1.334,2.646,2.686a.515.515,0,0,1,.126.373c-.175,1.254-.364,2.5-.563,3.754a.385.385,0,0,1-.172.273.392.392,0,0,1-.3-.12q-1.356-1.36-2.7-2.738a.956.956,0,0,1-.112-.175C344.942,169.378,345.045,168.683,345.151,167.986Zm-6.658,3.119a.4.4,0,0,1,.33-.08c1.217.192,2.433.4,3.65.594a.512.512,0,0,1,.425.307c.56,1.1,1.136,2.2,1.708,3.3.143.275.055.442-.227.425-.7-.118-1.409-.235-2.118-.35-.545-.092-1.09-.187-1.636-.27a.479.479,0,0,1-.4-.284c-.565-1.1-1.142-2.2-1.7-3.306A.4.4,0,0,1,338.494,171.106Z" transform="translate(-328.865 -160.996)" fill="#cbbba0"/>
  <path id="Tracé_136955" data-name="Tracé 136955" d="M341.442,176.871a.33.33,0,0,0,.221.158c1.116.132,2.233.258,3.352.37a1.771,1.771,0,0,0,.717-.026c1.811-.571,3.6-1.208,5.429-1.73a4.884,4.884,0,0,0,2.327-1.484,6.708,6.708,0,0,0,1.656-6.947,11.975,11.975,0,0,0-1.44-2.927,5.248,5.248,0,0,1-.763-1.676c-.083-.353-.126-.715-.189-1.1a5.508,5.508,0,0,1-3.145-.075,10.888,10.888,0,0,0-2.663-.43,6.692,6.692,0,0,0-4.281,1.286,8.555,8.555,0,0,0-2.786,3.822.693.693,0,0,0-.032.255q-.009,3.388-.006,6.77a.746.746,0,0,0,.054.3Q340.659,175.155,341.442,176.871Zm3.636-1.567q.9-1.761,1.825-3.515a.277.277,0,0,1,.175-.123c1.294-.221,2.588-.442,3.883-.651a.331.331,0,0,1,.267.089.325.325,0,0,1,.006.278q-.887,1.73-1.794,3.449a.385.385,0,0,1-.25.184c-1.277.221-2.557.43-3.837.643l-.046,0C345.075,175.665,344.969,175.513,345.078,175.3Zm-3.934-6.52q1.343-1.373,2.7-2.738a.363.363,0,0,1,.284-.1c.069.014.146.143.161.23.2,1.288.4,2.58.585,3.868a.346.346,0,0,1-.086.25q-1.36,1.395-2.735,2.772a.336.336,0,0,1-.261.1.317.317,0,0,1-.175-.221c-.2-1.271-.387-2.545-.58-3.82,0-.023,0-.049-.011-.135A.893.893,0,0,1,341.144,168.784Z" transform="translate(-318.36 -160.999)" fill="#cbbba0"/>
  <path id="Tracé_136956" data-name="Tracé 136956" d="M349.6,175.174a.931.931,0,0,0,.149-.341c.255-1.191.5-2.382.752-3.573a.34.34,0,0,0-.121-.37c-.89-.8-1.768-1.607-2.66-2.4a1.271,1.271,0,0,0-.442-.258q-3.121-1.025-6.247-2.026a1.382,1.382,0,0,0-.6-.063,17.037,17.037,0,0,0-1.868.321,6.427,6.427,0,0,0-4.02,2.809,9.44,9.44,0,0,0-1.32,4.336,14.2,14.2,0,0,1-.3,2.035,8.365,8.365,0,0,1-.571,1.334c-.009-.012,0,.006.009.011a5.7,5.7,0,0,1,2.514,1.957A10.025,10.025,0,0,0,337.007,181a6.576,6.576,0,0,0,4.614,1.234,9,9,0,0,0,3.817-1.406.764.764,0,0,0,.2-.2Q347.621,177.9,349.6,175.174Zm-10.239-4.841a.314.314,0,0,1-.166-.227.319.319,0,0,1,.169-.224q1.722-.874,3.458-1.728a.438.438,0,0,1,.33-.006q1.735.852,3.458,1.725a1.115,1.115,0,0,1,.224.212l.072.132c-.089.037-.181.075-.267.118q-1.769.882-3.544,1.765a.268.268,0,0,1-.215-.006Q341.116,171.221,339.362,170.332Zm2.806,8.224-.049.006a.229.229,0,0,1-.238-.33.642.642,0,0,1,.063-.126c.577-1.116,1.159-2.23,1.733-3.349a.368.368,0,0,1,.3-.221c1.248-.2,2.494-.419,3.742-.617a.432.432,0,0,1,.336.089c.049.055.02.227-.029.321q-.861,1.687-1.748,3.366a.457.457,0,0,1-.278.212C344.726,178.135,343.446,178.345,342.169,178.557Z" transform="translate(-332.354 -151.413)" fill="#cbbba0"/>
  <path id="Tracé_136957" data-name="Tracé 136957" d="M358.149,174.125c-.078-.746-.126-1.5-.276-2.233a6.731,6.731,0,0,0-2.666-4.287,8.109,8.109,0,0,0-3.992-1.441,2.105,2.105,0,0,0-.838.014c-2.141.674-4.273,1.375-6.405,2.069a.776.776,0,0,0-.264.149c-.915.826-1.828,1.661-2.746,2.485a.319.319,0,0,0-.112.35c.238,1.122.459,2.244.709,3.363a1.912,1.912,0,0,0,.3.68q1.907,2.66,3.843,5.3a1.083,1.083,0,0,0,.341.316,19.108,19.108,0,0,0,1.805.89,6.405,6.405,0,0,0,5.96-.465,10.345,10.345,0,0,0,2.514-2.187c.353-.416.715-.826,1.1-1.211a4.513,4.513,0,0,1,1.607-.961A5.352,5.352,0,0,1,358.149,174.125Zm-9.057,4.4c-1.2-.189-2.387-.393-3.581-.583a.606.606,0,0,1-.505-.356c-.551-1.093-1.125-2.178-1.687-3.266-.143-.276-.054-.439.241-.422.715.115,1.446.235,2.181.356.537.089,1.073.184,1.613.267a.385.385,0,0,1,.324.23c.571,1.119,1.159,2.23,1.727,3.352a.436.436,0,0,1,.023.362C349.388,178.527,349.2,178.539,349.092,178.522Zm2.835-8.167q-1.7.865-3.412,1.707a.423.423,0,0,1-.319-.006q-1.713-.844-3.412-1.707a.427.427,0,0,1-.221-.261c-.009-.072.118-.192.212-.241,1.125-.571,2.258-1.136,3.389-1.7.063-.032.129-.055.2-.083.08.034.155.06.224.095,1.119.557,2.236,1.113,3.346,1.679.1.049.224.172.224.261S352.028,170.306,351.927,170.355Z" transform="translate(-316.492 -151.407)" fill="#cbbba0"/>
  <path id="Tracé_136958" data-name="Tracé 136958" d="M352.6,176.2c-1.3-1.831-2.626-3.647-3.949-5.464a.724.724,0,0,0-.218-.209c-1.082-.626-2.166-1.248-3.254-1.86a.379.379,0,0,0-.316,0c-1.07.6-2.132,1.211-3.194,1.825a.918.918,0,0,0-.261.232q-2.006,2.751-4,5.507a.738.738,0,0,0-.135.3c-.112.628-.253,1.257-.3,1.894a6.446,6.446,0,0,0,1.9,5.338,9.825,9.825,0,0,0,3.5,2.167,5.715,5.715,0,0,1,2.586,1.742.549.549,0,0,0,.052.034l.046-.02a1.153,1.153,0,0,0,.08-.089,5.286,5.286,0,0,1,2.167-1.529,19.815,19.815,0,0,0,1.819-.806,6.952,6.952,0,0,0,3.515-3.819,7.988,7.988,0,0,0,.23-4.419A2.114,2.114,0,0,0,352.6,176.2Zm-8.979.02q-1.343,1.377-2.7,2.738a.421.421,0,0,1-.3.115c-.06-.009-.143-.143-.158-.23-.2-1.248-.382-2.5-.571-3.751-.006-.037-.009-.078-.017-.184a.838.838,0,0,1,.126-.224q1.335-1.365,2.683-2.72c.069-.069.21-.143.278-.118a.4.4,0,0,1,.187.264q.3,1.907.577,3.822A.4.4,0,0,1,343.624,176.222Zm6.227.875c-.089.577-.172,1.156-.273,1.733a.243.243,0,0,1-.451.141q-1.373-1.377-2.732-2.772a.348.348,0,0,1-.083-.25q.28-1.911.58-3.822a.379.379,0,0,1,.172-.273.385.385,0,0,1,.3.118q1.343,1.343,2.669,2.7a1.314,1.314,0,0,1,.144.232C350.061,175.674,349.958,176.386,349.852,177.1Z" transform="translate(-323.765 -146.723)" fill="#cbbba0"/>
</svg>
