<svg xmlns="http://www.w3.org/2000/svg" width="42.587" height="37.483" viewBox="0 0 42.587 37.483">
  <path id="home" d="M21.391,42.99a.473.473,0,0,1-.445.5c-.326.019-.655.029-.983.029a17.5,17.5,0,0,1-8.776-2.375.473.473,0,0,1,.479-.817,16.529,16.529,0,0,0,9.226,2.219A.472.472,0,0,1,21.391,42.99Zm-8.936-3.768a.468.468,0,0,0,.111.013.474.474,0,0,0,.46-.363l2.461-10.238a.473.473,0,1,0-.92-.221L12.105,38.651A.474.474,0,0,0,12.455,39.222Zm29.468,1.1A16.527,16.527,0,0,1,32.7,42.545a.473.473,0,1,0-.055.944q.49.028.983.029A17.494,17.494,0,0,0,42.4,41.144a.473.473,0,0,0-.478-.817Zm4.323-2.24a.475.475,0,0,1-.048.029l-2.03,1.064c.078.159.153.32.237.477L46,42.6a.969.969,0,0,1-.664,1.48L31.359,47.437a1.194,1.194,0,0,1-.96-.149,1.064,1.064,0,0,1-.3-.868l.08-3.343a13.3,13.3,0,0,0-.363-3.39l-1.857-7.722a1.974,1.974,0,0,1-1.348.5,2.527,2.527,0,0,1-.387-.03,2.482,2.482,0,0,1-.656-.213l-1.793,7.464a13.158,13.158,0,0,0-.36,3.389l.077,3.344a1.059,1.059,0,0,1-.35.89,1.126,1.126,0,0,1-.912.127L8.253,44.077a1.094,1.094,0,0,1-.778-.522,1.149,1.149,0,0,1,.116-.957l1.591-2.943c.084-.156.16-.317.238-.475L7.39,38.116a.493.493,0,0,1-.048-.029,4.206,4.206,0,0,1-1.457-5.23l2.087-5.338A2.313,2.313,0,0,1,10.7,26.14l2.063.5.732-3.044a2.728,2.728,0,0,1,.767-2.717,2.661,2.661,0,0,1,3.44-.32,4.64,4.64,0,0,1,3.462-2.077,5.467,5.467,0,0,1,4.1,1.728,2.675,2.675,0,0,1,2.4,1.249.468.468,0,0,1,.069.2,12.347,12.347,0,0,1,1.339-.182,3.914,3.914,0,0,1,3.16-1.538h.037a4.053,4.053,0,0,1,2.828,1.019,3.134,3.134,0,0,1,4.064.168,2.805,2.805,0,0,1,.929,2.455l.736,3.058,2.063-.5a2.314,2.314,0,0,1,2.73,1.379l2.1,5.363A4.2,4.2,0,0,1,46.246,38.086Zm-2.975-1.317,1.593-.806a1.686,1.686,0,0,0,.553-2.092l-.029-.071-2.076-5.327-1.935.465,1.812,7.531C43.213,36.571,43.245,36.669,43.271,36.769ZM14.444,23.476a.454.454,0,0,1,.013.118,3.18,3.18,0,0,0,3.219,1.6.473.473,0,0,1,.413.227c.932,1.522,3.44,3.236,5.066,2.649a6.506,6.506,0,0,1,2.885-5.743,3.445,3.445,0,0,1,.787-.416,1.76,1.76,0,0,0-1.665-.753.479.479,0,0,1-.443-.155,4.711,4.711,0,0,0-3.467-1.587,3.852,3.852,0,0,0-3.017,2.059c-.005.011-.012.022-.018.033a4.6,4.6,0,0,0-.371.834.473.473,0,0,1-.907-.268,5.128,5.128,0,0,1,.284-.7,1.73,1.73,0,0,0-2.349.221A1.887,1.887,0,0,0,14.444,23.476Zm-2.232,5.463-1.935-.466-2.1,5.378a1.693,1.693,0,0,0,.545,2.111l1.6.807c.026-.1.058-.2.082-.3ZM9.807,38.314c.083-.206.159-.414.232-.625l-1.772-.9a.6.6,0,0,1-.054-.032,2.628,2.628,0,0,1-.9-3.289l.011-.029,2.117-5.434a.807.807,0,0,1,.928-.485l2.063.5.111-.463-2.063-.5a1.369,1.369,0,0,0-1.629.8l-2.1,5.361a3.271,3.271,0,0,0,1.1,4.065Zm14.922-6.663A5.145,5.145,0,0,1,23.314,29.1c-.007-.026-.01-.053-.016-.08a3.114,3.114,0,0,1-.876.127,6.888,6.888,0,0,1-4.994-3.006,4.321,4.321,0,0,1-3.255-1.315L11.322,36.692A14.077,14.077,0,0,1,10.015,40.1L8.424,43.047a.077.077,0,0,0,.048.109l13.977,3.361a.068.068,0,0,0,.066-.014.073.073,0,0,0,.028-.061L22.467,43.1a14.1,14.1,0,0,1,.386-3.633Zm2.841-1.307a.5.5,0,0,1,.3-.535c.013,0,1.333-.516,1.441-1.487a.473.473,0,0,1,.47-.421c.105,0,.221,0,.347.008,1.116.041,2.383.086,2.579-2.044a.473.473,0,0,1,.616-.407c2.11.677,3.476.16,4.176-1.578a.512.512,0,0,1,.328-.283l1.329-.319a1.79,1.79,0,0,0-.6-1.426,2.179,2.179,0,0,0-2.848-.17,3.328,3.328,0,0,1,.457,1.047.473.473,0,0,1-.338.578.483.483,0,0,1-.585-.34,2.893,2.893,0,0,0-2.973-2.085h-.031a3.042,3.042,0,0,0-2.493,1.284.426.426,0,0,1-.38.173,6.19,6.19,0,0,0-2.765.787,5.455,5.455,0,0,0-2.363,5.77,3.281,3.281,0,0,0,2.133,2.612,1.119,1.119,0,0,0,1-.269A.967.967,0,0,0,27.57,30.344Zm16,9.761a14.222,14.222,0,0,1-1.3-3.413l-3-12.468-.991.238c-.632,1.388-1.952,2.732-4.708,2.049-.477,2.4-2.4,2.381-3.413,2.346a3.155,3.155,0,0,1-1.573,1.659l2.153,8.948a14.246,14.246,0,0,1,.388,3.632l-.08,3.344a.073.073,0,0,0,.029.061.07.07,0,0,0,.063.015l13.977-3.361a.07.07,0,0,0,.052-.042.073.073,0,0,0,0-.068Zm3.269-6.855-2.107-5.386a1.368,1.368,0,0,0-1.628-.8l-2.062.5.112.463,2.063-.5a.8.8,0,0,1,.926.481l2.14,5.491a2.62,2.62,0,0,1-.909,3.266.5.5,0,0,1-.054.032l-1.77.9c.072.21.149.419.232.625l1.951-1.022A3.264,3.264,0,0,0,46.842,33.25Zm-7.169,1.465a.474.474,0,0,0,.46.363.494.494,0,0,0,.111-.013.473.473,0,0,0,.35-.571L39,27.864a.473.473,0,0,0-.92.221Zm.535,2.224.556,2.1a.473.473,0,0,0,.457.352.49.49,0,0,0,.122-.016.473.473,0,0,0,.336-.579l-.556-2.1a.473.473,0,0,0-.915.242ZM26.555,17.1a.473.473,0,0,0,.473-.473v-6.15a.473.473,0,1,0-.946,0v6.15A.473.473,0,0,0,26.555,17.1Zm-5.18-.324a.473.473,0,1,0,.9-.3l-1.419-4.258a.473.473,0,1,0-.9.3Zm9.761.3a.471.471,0,0,0,.6-.3l1.419-4.258a.473.473,0,0,0-.9-.3l-1.419,4.258A.473.473,0,0,0,31.136,17.072Zm4.48.971a.472.472,0,0,0,.352-.157l2.135-2.38a.473.473,0,0,0-.7-.632l-2.135,2.38a.473.473,0,0,0,.352.789Zm-18.561-.157a.473.473,0,1,0,.7-.632l-2.135-2.38a.473.473,0,0,0-.7.632Zm10.768,7.745a1.71,1.71,0,0,1,1.454-1.736.477.477,0,0,0-.142-.942,2.65,2.65,0,0,0-2.258,2.685.456.456,0,0,0,.473.449h0A.459.459,0,0,0,27.824,25.631Z" transform="translate(-5.502 -10)" fill="#cbbba0"/>
</svg>
