<svg xmlns="http://www.w3.org/2000/svg" width="184.128" height="87.203" viewBox="0 0 184.128 87.203">
  <g id="logo_or" data-name="logo or" transform="translate(0.389)">
    <g id="BRASSERIE" transform="translate(49.365 0)">
      <g id="Groupe_36" data-name="Groupe 36" transform="translate(0 0.837)">
        <path id="Tracé_209" data-name="Tracé 209" d="M632.141,515.793a.932.932,0,0,1,1.031,1.225l-.66,2.909a1.993,1.993,0,0,1-1.651,1.458l-5.939.51.513-.61,2.294-10.033-.252-.542,5.941-.51a.935.935,0,0,1,1.032,1.228l-.658,2.908A2,2,0,0,1,632.141,515.793Zm-1.179,1.041-2.3.2-.62,2.7,2.3-.2Zm1.052-4.618-2.285.2-.621,2.7,2.3-.2Z" transform="translate(-624.923 -504.026)" fill="#040405"/>
        <path id="Tracé_210" data-name="Tracé 210" d="M641.481,520.472l-2.446.211-.442-3.549-1.349.115-.714,3.084.25.543-3.066.263.515-.608,2.292-10.033-.25-.542,5.94-.51a.934.934,0,0,1,1.033,1.226l-1.093,4.826a2.086,2.086,0,0,1-1.141,1.336Zm-.674-9.013-2.285.2-.844,3.66,2.3-.2Z" transform="translate(-624.291 -504.08)" fill="#040405"/>
        <path id="Tracé_211" data-name="Tracé 211" d="M647.886,519.841l.478-.527-.043-1.029-2.812.241-.527,1.078.252.464-3.257.28.639-.556,5.079-10.46-.114-.43,3.067-.264-.316.467.416,9.988.395.467Zm.361-3.431-.136-3.231-1.643,3.383Z" transform="translate(-623.696 -504.138)" fill="#040405"/>
        <path id="Tracé_212" data-name="Tracé 212" d="M659.066,515.954l-.374,1.705a1.964,1.964,0,0,1-1.654,1.444l-4.281.361a.95.95,0,0,1-1.074-1.212l.457-2.087,2.338-.2-.332,1.518,2.336-.2.353-1.606-3.09-1.789c-.433-.265-.678-.438-.768-.732a2.425,2.425,0,0,1,.079-1.168l.456-2.085a1.962,1.962,0,0,1,1.655-1.443l4.281-.361a.948.948,0,0,1,1.073,1.212l-.374,1.705-2.418.576.331-1.516-2.336.2-.342,1.567,3.406,1.971a.923.923,0,0,1,.459.51A3.551,3.551,0,0,1,659.066,515.954Z" transform="translate(-623 -504.177)" fill="#040405"/>
        <path id="Tracé_213" data-name="Tracé 213" d="M667.639,515.228l-.374,1.708a1.965,1.965,0,0,1-1.655,1.443l-4.282.362a.949.949,0,0,1-1.073-1.212l.457-2.086,2.337-.2-.331,1.518,2.335-.2.352-1.606-3.091-1.789c-.43-.266-.675-.438-.765-.732a2.427,2.427,0,0,1,.079-1.168l.456-2.085a1.967,1.967,0,0,1,1.655-1.443l4.282-.362a.948.948,0,0,1,1.074,1.211l-.374,1.705-2.42.578.332-1.516-2.336.2-.343,1.567,3.405,1.972a.909.909,0,0,1,.459.51A3.5,3.5,0,0,1,667.639,515.228Z" transform="translate(-622.384 -504.229)" fill="#040405"/>
        <path id="Tracé_214" data-name="Tracé 214" d="M674.274,509.271l.169-.766-1.9.163-.621,2.7,2.3-.2-.066,1.885-2.684.23-.62,2.7,1.92-.164.171-.768,2.3-.2-.617,2.7-6.895.592.515-.609,2.293-10.032-.251-.542,6.909-.593-.62,2.7Z" transform="translate(-621.844 -504.301)" fill="#040405"/>
        <path id="Tracé_215" data-name="Tracé 215" d="M683.921,516.756l-2.445.21-.442-3.549-1.351.116-.713,3.083.25.545-3.065.263.512-.61,2.294-10.033-.252-.542,5.942-.51a.935.935,0,0,1,1.032,1.228l-1.092,4.824a2.085,2.085,0,0,1-1.141,1.337Zm-.674-9.013-2.285.2-.844,3.661,2.3-.2Z" transform="translate(-621.238 -504.348)" fill="#040405"/>
        <path id="Tracé_216" data-name="Tracé 216" d="M688.209,515.8l.25.544-3.066.264.513-.61,2.293-10.032-.251-.542,3.067-.263-.515.607Z" transform="translate(-620.573 -504.388)" fill="#040405"/>
        <path id="Tracé_217" data-name="Tracé 217" d="M696.792,507.339l.169-.768-1.907.165-.618,2.7,2.3-.2-.066,1.884-2.685.231-.619,2.7,1.92-.164.172-.769,2.3-.2-.62,2.7-6.893.592.515-.61,2.292-10.032-.25-.542,6.909-.594-.621,2.7Z" transform="translate(-620.224 -504.44)" fill="#040405"/>
      </g>
      <g id="Groupe_37" data-name="Groupe 37" transform="translate(0.542 6.186)">
        <path id="Tracé_218" data-name="Tracé 218" d="M632.967,515.165a.932.932,0,0,1,1.03,1.226l-.659,2.908a2,2,0,0,1-1.651,1.458l-5.94.51.512-.61,2.294-10.033-.252-.541,5.941-.51a.934.934,0,0,1,1.033,1.227l-.659,2.908A1.994,1.994,0,0,1,632.967,515.165Zm-1.179,1.042-2.3.2-.621,2.7,2.3-.2Zm1.051-4.619-2.285.2-.621,2.7,2.3-.2Z" transform="translate(-625.406 -509.42)" fill="#c2ad8d"/>
        <path id="Tracé_219" data-name="Tracé 219" d="M625.429,521.455l.718-.857,2.275-9.947-.318-.688,6.151-.528a1.129,1.129,0,0,1,.972.353,1.169,1.169,0,0,1,.217,1.055l-.658,2.908a2.185,2.185,0,0,1-1.149,1.388.97.97,0,0,1,.312.239,1.187,1.187,0,0,1,.218,1.056l-.66,2.908a2.151,2.151,0,0,1-1.783,1.574Zm3.119-11.234.183.4L626.4,520.761l-.283.338,5.585-.48a1.833,1.833,0,0,0,1.52-1.343l.659-2.908a.88.88,0,0,0-.152-.8.84.84,0,0,0-.722-.249l-.025-.295a1.841,1.841,0,0,0,1.519-1.343l.658-2.908a.884.884,0,0,0-.151-.8.82.82,0,0,0-.725-.251Zm.15,9.059.69-3.006,2.611-.223-.688,3Zm.93-2.729-.552,2.4,1.995-.173.551-2.4Zm.138-1.891.689-3,2.594-.224-.671,3-.108.01Zm.929-2.727-.551,2.4,1.993-.172.536-2.4Z" transform="translate(-625.429 -509.43)" fill="#2a2a2a"/>
      </g>
      <g id="Groupe_38" data-name="Groupe 38" transform="translate(9.966 5.379)">
        <path id="Tracé_220" data-name="Tracé 220" d="M642.306,519.845l-2.446.21-.441-3.549-1.35.115-.714,3.084.25.544-3.065.264.513-.609,2.293-10.032-.251-.542,5.94-.51a.934.934,0,0,1,1.034,1.226l-1.093,4.825a2.087,2.087,0,0,1-1.142,1.336Zm-.674-9.013-2.285.2-.843,3.66,2.3-.2Z" transform="translate(-634.197 -508.667)" fill="#c2ad8d"/>
        <path id="Tracé_221" data-name="Tracé 221" d="M634.22,520.7l.723-.854,2.272-9.949-.316-.687,6.147-.528a1.148,1.148,0,0,1,.972.351,1.167,1.167,0,0,1,.219,1.056l-1.093,4.826a2.212,2.212,0,0,1-1.125,1.388l.477,3.688-2.741.236-.442-3.55-1.1.094-.677,2.93.316.689Zm3.121-11.232.183.4-2.335,10.145-.283.335,2.5-.213-.184-.4.012-.05.737-3.188,1.6-.135.442,3.548,2.15-.185-.464-3.593.1-.046a1.946,1.946,0,0,0,1.06-1.234l1.093-4.826a.886.886,0,0,0-.153-.8.817.817,0,0,0-.725-.25Zm1,5.4.913-3.963,2.593-.223-.894,3.96-.107.011Zm1.151-3.686-.773,3.356,1.994-.17.757-3.356Z" transform="translate(-634.22 -508.677)" fill="#2a2a2a"/>
      </g>
      <g id="Groupe_39" data-name="Groupe 39" transform="translate(18.729 4.491)">
        <path id="Tracé_222" data-name="Tracé 222" d="M648.712,519.213l.478-.527-.043-1.029-2.812.241-.527,1.078.252.464-3.257.28.639-.556,5.079-10.46-.113-.43,3.067-.263-.317.467.416,9.987.394.467Zm.361-3.431-.136-3.231-1.643,3.383Z" transform="translate(-642.366 -507.837)" fill="#c2ad8d"/>
        <path id="Tracé_223" data-name="Tracé 223" d="M642.4,519.918l.956-.834,5.042-10.384-.144-.548,3.55-.3-.464.683.412,9.889.546.646-3.916.337.69-.76-.033-.815-2.575.221-.458.936.324.6Zm6.23-11.5.082.313-.024.049-5.115,10.506-.3.259,2.581-.221-.18-.333.6-1.222,3.049-.262.051,1.243-.266.295,2.6-.224-.242-.287-.421-10.087.17-.251Zm-1.548,7.7,2.011-4.143.168,3.958Zm1.767-2.962-1.275,2.624,1.38-.118Z" transform="translate(-642.395 -507.849)" fill="#2a2a2a"/>
      </g>
      <g id="Groupe_40" data-name="Groupe 40" transform="translate(29.307 3.941)">
        <path id="Tracé_224" data-name="Tracé 224" d="M659.814,515.326l-.374,1.706a1.963,1.963,0,0,1-1.653,1.444l-4.282.361a.949.949,0,0,1-1.073-1.212l.457-2.086,2.337-.2-.332,1.518,2.336-.2.353-1.6-3.09-1.79c-.433-.265-.677-.438-.768-.731a2.431,2.431,0,0,1,.079-1.17l.457-2.085a1.964,1.964,0,0,1,1.654-1.443l4.282-.361a.947.947,0,0,1,1.072,1.212l-.374,1.705-2.418.576.332-1.516-2.337.2-.342,1.567,3.406,1.971a.914.914,0,0,1,.459.509A3.548,3.548,0,0,1,659.814,515.326Z" transform="translate(-652.253 -507.325)" fill="#c2ad8d"/>
        <path id="Tracé_225" data-name="Tracé 225" d="M653.4,519a1.131,1.131,0,0,1-.874-.367,1.152,1.152,0,0,1-.225-1.03l.48-2.192,2.646-.223-.332,1.519,2.027-.174.308-1.394-3-1.735c-.436-.267-.728-.466-.835-.817a2.469,2.469,0,0,1,.077-1.243l.456-2.084a2.125,2.125,0,0,1,1.787-1.56l4.281-.361a1.2,1.2,0,0,1,1.005.36,1.155,1.155,0,0,1,.224,1.031l-.394,1.8-2.737.653.339-1.551-2.027.173-.3,1.355,3.312,1.917a1.074,1.074,0,0,1,.525.591,2.822,2.822,0,0,1-.112,1.422l-.437,1.987a2.123,2.123,0,0,1-1.785,1.56l-4.282.361C653.483,519,653.44,519,653.4,519Zm-.377-3.312-.433,1.979a.8.8,0,0,0,.918,1.033l4.281-.361a1.81,1.81,0,0,0,1.522-1.328l.437-1.988a2.68,2.68,0,0,0,.119-1.265.773.773,0,0,0-.39-.427l-3.5-2.026.389-1.779L659,509.3l-.324,1.482,2.1-.5.354-1.615a.866.866,0,0,0-.156-.774.885.885,0,0,0-.759-.258l-4.281.36a1.81,1.81,0,0,0-1.523,1.327l-.456,2.085a2.3,2.3,0,0,0-.084,1.094c.072.232.266.382.7.648l3.183,1.843-.4,1.817-2.643.224.331-1.518Z" transform="translate(-652.263 -507.335)" fill="#2a2a2a"/>
      </g>
      <g id="Groupe_41" data-name="Groupe 41" transform="translate(38.493 3.163)">
        <path id="Tracé_226" data-name="Tracé 226" d="M668.387,514.6l-.374,1.707a1.964,1.964,0,0,1-1.655,1.443l-4.281.362A.949.949,0,0,1,661,516.9l.457-2.086,2.338-.2-.332,1.518,2.336-.2.351-1.606-3.09-1.79c-.431-.266-.676-.437-.766-.731a2.444,2.444,0,0,1,.079-1.169l.457-2.085a1.964,1.964,0,0,1,1.655-1.443l4.281-.362a.948.948,0,0,1,1.074,1.212l-.374,1.705-2.419.578.331-1.517-2.336.2-.342,1.567,3.406,1.973a.9.9,0,0,1,.458.51A3.5,3.5,0,0,1,668.387,514.6Z" transform="translate(-660.823 -506.6)" fill="#c2ad8d"/>
        <path id="Tracé_227" data-name="Tracé 227" d="M661.967,518.275a1.127,1.127,0,0,1-.874-.367,1.148,1.148,0,0,1-.226-1.03l.48-2.192,2.646-.224-.331,1.519,2.027-.173.3-1.393-3-1.735c-.449-.277-.727-.468-.834-.816a2.485,2.485,0,0,1,.077-1.245l.456-2.084a2.129,2.129,0,0,1,1.787-1.56l4.282-.361a1.172,1.172,0,0,1,1.007.361,1.151,1.151,0,0,1,.224,1.029l-.394,1.8-2.739.654.339-1.551-2.027.17-.3,1.356,3.311,1.918a1.057,1.057,0,0,1,.525.592,2.808,2.808,0,0,1-.109,1.422l-.437,1.986a2.123,2.123,0,0,1-1.787,1.56l-4.282.361C662.054,518.273,662.01,518.275,661.967,518.275Zm-.377-3.312-.433,1.979a.859.859,0,0,0,.159.773.882.882,0,0,0,.758.26l4.282-.362a1.8,1.8,0,0,0,1.522-1.327l.44-1.989a2.664,2.664,0,0,0,.117-1.263.767.767,0,0,0-.39-.428l-3.5-2.028.388-1.779,2.643-.221-.324,1.481,2.1-.5.354-1.614a.859.859,0,0,0-.156-.772.876.876,0,0,0-.76-.262l-4.282.362a1.81,1.81,0,0,0-1.523,1.327l-.456,2.084a2.327,2.327,0,0,0-.084,1.094c.074.24.281.389.7.648l3.18,1.843-.4,1.818-2.643.222.332-1.518Z" transform="translate(-660.833 -506.61)" fill="#2a2a2a"/>
      </g>
      <g id="Groupe_42" data-name="Groupe 42" transform="translate(46.429 2.073)">
        <path id="Tracé_228" data-name="Tracé 228" d="M675.1,508.643l.169-.766-1.9.163-.621,2.7,2.3-.2-.066,1.886-2.683.23-.621,2.7,1.921-.165.17-.768,2.3-.2-.618,2.7-6.893.591.513-.608,2.294-10.033-.252-.542,6.909-.593-.618,2.7Z" transform="translate(-668.213 -505.582)" fill="#c2ad8d"/>
        <path id="Tracé_229" data-name="Tracé 229" d="M668.236,517.711l.722-.854,2.274-9.949-.318-.687,7.32-.628-.688,3-2.61.225.168-.768-1.6.137-.551,2.4,2.267-.193-.078,2.182-2.706.233-.552,2.4,1.611-.138.171-.77,2.611-.223-.687,3Zm3.123-11.232.183.4-2.335,10.145-.284.334,6.43-.551.549-2.4-1.992.17-.172.769-2.231.192.69-3,2.659-.228.057-1.588-2.338.2.689-3,2.214-.189-.169.766,1.995-.173.55-2.4Z" transform="translate(-668.236 -505.593)" fill="#2a2a2a"/>
      </g>
      <g id="Groupe_43" data-name="Groupe 43" transform="translate(55.462 1.393)">
        <path id="Tracé_230" data-name="Tracé 230" d="M684.747,516.128l-2.446.21-.442-3.549-1.351.116-.712,3.084.25.543-3.066.263.513-.61,2.293-10.032-.251-.542,5.941-.51a.934.934,0,0,1,1.032,1.227l-1.091,4.825a2.088,2.088,0,0,1-1.142,1.336Zm-.674-9.013-2.286.2-.844,3.66,2.3-.2Z" transform="translate(-676.64 -504.949)" fill="#c2ad8d"/>
        <path id="Tracé_231" data-name="Tracé 231" d="M676.663,516.983l.718-.857,2.275-9.948-.318-.688,6.15-.528a1.147,1.147,0,0,1,.973.353,1.169,1.169,0,0,1,.215,1.055l-1.091,4.824a2.211,2.211,0,0,1-1.126,1.39l.477,3.688-2.742.236-.441-3.55-1.1.1-.675,2.93.316.688Zm3.118-11.234.184.4-2.336,10.144-.284.338,2.5-.214-.183-.4.012-.049.735-3.189,1.6-.136.44,3.548L684.6,516l-.464-3.594.1-.046a1.943,1.943,0,0,0,1.059-1.236l1.092-4.824a.884.884,0,0,0-.152-.8.819.819,0,0,0-.725-.251Zm1,5.4.913-3.963,2.594-.224-.894,3.961-.107.011Zm1.152-3.686-.775,3.356,2-.17.757-3.356Z" transform="translate(-676.663 -504.959)" fill="#2a2a2a"/>
      </g>
      <g id="Groupe_44" data-name="Groupe 44" transform="translate(65.362 0.764)">
        <path id="Tracé_232" data-name="Tracé 232" d="M689.034,515.177l.25.545-3.065.264.512-.61,2.294-10.032-.252-.542,3.067-.263-.513.607Z" transform="translate(-685.876 -504.36)" fill="#c2ad8d"/>
        <path id="Tracé_233" data-name="Tracé 233" d="M685.9,516.175l.72-.855,2.274-9.948-.319-.689,3.634-.311-.722.853-2.273,9.949.316.688Zm3.12-11.234.184.4-2.337,10.144-.283.337,2.5-.216-.183-.4,2.334-10.145.284-.333Z" transform="translate(-685.899 -504.372)" fill="#2a2a2a"/>
      </g>
      <g id="Groupe_45" data-name="Groupe 45" transform="translate(70.567)">
        <path id="Tracé_234" data-name="Tracé 234" d="M697.617,506.71l.169-.766-1.906.164-.62,2.7,2.3-.2L697.5,510.5l-2.685.23-.618,2.7,1.921-.164.17-.769,2.3-.2-.618,2.7-6.894.591.515-.61,2.292-10.032-.25-.542,6.909-.593-.621,2.7Z" transform="translate(-690.732 -503.648)" fill="#c2ad8d"/>
        <path id="Tracé_235" data-name="Tracé 235" d="M690.755,515.78l.721-.856,2.273-9.949-.317-.687,7.319-.629-.689,3-2.609.225.169-.768-1.6.137-.551,2.4,2.267-.2-.077,2.184-2.708.232-.55,2.4,1.611-.137.171-.768.107-.011,2.5-.215-.688,3.007Zm3.122-11.234.182.4-2.334,10.145-.285.337,6.431-.553.55-2.4-1.992.17-.171.77-2.231.19.688-3,2.663-.227.056-1.588-2.338.2.688-3L698,505.79l-.168.766,1.993-.172.552-2.4Z" transform="translate(-690.755 -503.659)" fill="#2a2a2a"/>
      </g>
    </g>
    <g id="MONTFLEURI" transform="translate(0 16.515)">
      <g id="Groupe_46" data-name="Groupe 46" transform="translate(1.012 0.567)">
        <path id="Tracé_236" data-name="Tracé 236" d="M599.7,555.445l.7,1.127-6.358.581.941-1.277,1-10.07-3.722,5.924-3.178.292-2.57-5.348-1.029,10.072.666,1.129-6.324.579.907-1.273,2.117-20.944-.665-1.129,5.538-.507,3.6,10.84,5.9-11.709,5.538-.506-.941,1.275Z" transform="translate(-579.815 -518.615)" fill="#040405"/>
        <path id="Tracé_237" data-name="Tracé 237" d="M618.816,534.475l-1.781,17.744a3.54,3.54,0,0,1-3.057,3.054l-8.718.8a2.229,2.229,0,0,1-2.479-2.549l1.814-17.745a3.542,3.542,0,0,1,3.058-3.056l8.684-.794A2.216,2.216,0,0,1,618.816,534.475Zm-4.87,1.668-4.752.434-1.544,15.276,4.751-.434Z" transform="translate(-578.164 -518.709)" fill="#040405"/>
        <path id="Tracé_238" data-name="Tracé 238" d="M638.279,529.953l-.908,1.271-2.238,22.146-4.752.435-4.387-10.768-1.029,10.072.666,1.13-6.324.578.907-1.272L622.33,532.6l-.666-1.129,5.539-.506,4.329,11.567,1.088-10.873-.665-1.129Z" transform="translate(-576.974 -518.85)" fill="#040405"/>
        <path id="Tracé_239" data-name="Tracé 239" d="M654.8,528.415l-.516,4.84-1.088-.695-3.572.326L647.816,551l.665,1.13-6.324.578.908-1.273,1.815-18.108-3.54.324-1.271.91.482-4.837Z" transform="translate(-575.481 -518.961)" fill="#040405"/>
        <path id="Tracé_240" data-name="Tracé 240" d="M666.385,532.952l.151-1.6-3.932.36-.576,5.637,4.751-.434.36,3.933-5.538.506-.846,8.469.666,1.13-6.324.578.908-1.273,2.116-20.944-.665-1.129,14.255-1.3-.575,5.636Z" transform="translate(-574.4 -519.071)" fill="#040405"/>
        <path id="Tracé_241" data-name="Tracé 241" d="M686.676,543.01l-.576,5.637-14.221,1.3.907-1.273,2.117-20.946-.666-1.129,6.324-.578-.907,1.272-1.847,18.112,3.965-.362.15-1.6Z" transform="translate(-573.193 -519.133)" fill="#040405"/>
        <path id="Tracé_242" data-name="Tracé 242" d="M699.946,529.883l.151-1.6-3.931.36-.577,5.637,4.752-.434.36,3.933-5.539.506-.575,5.637,3.965-.362.15-1.6,4.753-.434-.576,5.637-14.222,1.3.908-1.273,2.117-20.945-.666-1.129,14.255-1.3-.575,5.636Z" transform="translate(-571.986 -519.292)" fill="#040405"/>
        <path id="Tracé_243" data-name="Tracé 243" d="M723.555,522.144l-.908,1.272-1.966,19.345a3.54,3.54,0,0,1-3.057,3.056l-8.684.794a2.2,2.2,0,0,1-2.48-2.549l1.933-19.343-.666-1.129,6.324-.579-.907,1.274L711.3,542.4l4.751-.434,1.847-18.112-.665-1.129Z" transform="translate(-570.707 -519.412)" fill="#040405"/>
        <path id="Tracé_244" data-name="Tracé 244" d="M739.742,543.78l-5.047.462-1.865-7.4-2.786.255-.667,6.438.665,1.129-6.324.579.908-1.273,2.117-20.944-.666-1.129,12.255-1.121a2.216,2.216,0,0,1,2.481,2.55l-.995,10.07a3.683,3.683,0,0,1-2.025,2.8Zm-3.8-18.786-4.719.432-.789,7.64,4.752-.434Z" transform="translate(-569.464 -519.511)" fill="#040405"/>
        <path id="Tracé_245" data-name="Tracé 245" d="M747.839,541.813l.666,1.13-6.326.578.908-1.273L745.2,521.3l-.665-1.129,6.323-.579-.907,1.273Z" transform="translate(-568.136 -519.595)" fill="#040405"/>
      </g>
      <g id="Groupe_47" data-name="Groupe 47">
        <path id="Tracé_246" data-name="Tracé 246" d="M598.752,554.916l.7,1.125-6.356.581.94-1.275,1-10.07-3.721,5.924-3.179.29-2.571-5.349-1.029,10.073.666,1.129-6.324.579.908-1.273,2.116-20.944-.665-1.13,5.537-.506,3.6,10.84,5.9-11.709,5.538-.507-.94,1.277Z" transform="translate(-578.871 -518.086)" fill="#c2ad8d" stroke="#2a2a2a" stroke-miterlimit="10" stroke-width="0.374"/>
        <path id="Tracé_247" data-name="Tracé 247" d="M617.872,533.947l-1.781,17.741a3.543,3.543,0,0,1-3.058,3.055l-8.717.8a2.23,2.23,0,0,1-2.48-2.548l1.815-17.746a3.539,3.539,0,0,1,3.058-3.055l8.684-.794A2.215,2.215,0,0,1,617.872,533.947ZM613,535.614l-4.751.435-1.545,15.276,4.752-.435Z" transform="translate(-577.22 -518.18)" fill="#c2ad8d" stroke="#2a2a2a" stroke-miterlimit="10" stroke-width="0.374"/>
        <path id="Tracé_248" data-name="Tracé 248" d="M637.335,529.422l-.908,1.273-2.237,22.146-4.752.434-4.388-10.766-1.029,10.072.666,1.129-6.324.579.908-1.273,2.116-20.943-.665-1.13,5.538-.507L630.587,542l1.089-10.872-.666-1.13Z" transform="translate(-576.03 -518.321)" fill="#c2ad8d" stroke="#2a2a2a" stroke-miterlimit="10" stroke-width="0.374"/>
        <path id="Tracé_249" data-name="Tracé 249" d="M653.862,527.886l-.517,4.839-1.087-.694-3.573.327-1.814,18.108.666,1.129-6.324.578.908-1.271,1.814-18.109-3.54.324-1.271.91.483-4.837Z" transform="translate(-574.537 -518.432)" fill="#c2ad8d" stroke="#2a2a2a" stroke-miterlimit="10" stroke-width="0.374"/>
        <path id="Tracé_250" data-name="Tracé 250" d="M665.441,532.423l.151-1.6-3.932.359-.576,5.636,4.752-.434.359,3.932-5.538.507-.845,8.47.665,1.128-6.324.579.908-1.272,2.117-20.945-.666-1.13,14.256-1.3-.576,5.637Z" transform="translate(-573.456 -518.542)" fill="#c2ad8d" stroke="#2a2a2a" stroke-miterlimit="10" stroke-width="0.374"/>
        <path id="Tracé_251" data-name="Tracé 251" d="M685.732,542.481l-.575,5.637-14.222,1.3.908-1.273,2.116-20.943-.665-1.13,6.324-.579-.908,1.275-1.847,18.111,3.965-.361.151-1.6Z" transform="translate(-572.249 -518.604)" fill="#c2ad8d" stroke="#2a2a2a" stroke-miterlimit="10" stroke-width="0.374"/>
        <path id="Tracé_252" data-name="Tracé 252" d="M699,529.355l.151-1.6-3.933.36-.575,5.636,4.751-.434.36,3.933-5.538.506-.576,5.637,3.965-.362.151-1.6,4.752-.434-.575,5.637-14.222,1.3.908-1.273,2.116-20.943-.665-1.13,14.255-1.3-.575,5.637Z" transform="translate(-571.042 -518.763)" fill="#c2ad8d" stroke="#2a2a2a" stroke-miterlimit="10" stroke-width="0.374"/>
        <path id="Tracé_253" data-name="Tracé 253" d="M722.61,521.614l-.907,1.274-1.966,19.345a3.54,3.54,0,0,1-3.058,3.054l-8.684.794a2.2,2.2,0,0,1-2.48-2.548l1.933-19.343-.665-1.129,6.324-.579-.908,1.273-1.847,18.112,4.752-.435,1.847-18.111-.666-1.13Z" transform="translate(-569.763 -518.883)" fill="#c2ad8d" stroke="#2a2a2a" stroke-miterlimit="10" stroke-width="0.374"/>
        <path id="Tracé_254" data-name="Tracé 254" d="M738.8,543.251l-5.046.461-1.866-7.4-2.786.254-.667,6.438.666,1.129-6.325.579.909-1.273L725.8,522.5l-.665-1.13,12.255-1.12a2.216,2.216,0,0,1,2.479,2.55l-1,10.071a3.682,3.682,0,0,1-2.024,2.8ZM735,524.467l-4.719.431-.789,7.639,4.751-.435Z" transform="translate(-568.52 -518.982)" fill="#c2ad8d" stroke="#2a2a2a" stroke-miterlimit="10" stroke-width="0.374"/>
        <path id="Tracé_255" data-name="Tracé 255" d="M746.9,541.284l.665,1.129-6.324.578.908-1.272,2.116-20.943-.665-1.13,6.324-.579-.908,1.274Z" transform="translate(-567.192 -519.066)" fill="#c2ad8d" stroke="#2a2a2a" stroke-miterlimit="10" stroke-width="0.374"/>
      </g>
    </g>
    <g id="baseline" transform="translate(8.647 44.143)">
      <g id="Groupe_48" data-name="Groupe 48" transform="translate(1.014 0.954)">
        <path id="Tracé_256" data-name="Tracé 256" d="M710.495,555.6l12.423,2.351.834,11.783,11.274-1.9-1.166-15.227Z" transform="translate(-579.064 -545.236)" fill="#050606"/>
        <path id="Tracé_257" data-name="Tracé 257" d="M721.9,550.841l23.366-5.11-3.187,7.74,4.224,7.352-10.893,2.7-.7-11.648Z" transform="translate(-578.243 -545.73)" fill="#050606"/>
        <path id="Tracé_258" data-name="Tracé 258" d="M623.7,576.289l-12.423-2.351-.834-11.783-11.274,1.9,1.166,15.226Z" transform="translate(-587.072 -544.549)" fill="#050606"/>
        <path id="Tracé_259" data-name="Tracé 259" d="M612.286,581.094,588.92,586.2l3.187-7.74-4.224-7.352,10.893-2.7.7,11.648Z" transform="translate(-587.884 -544.099)" fill="#050606"/>
        <path id="Tracé_260" data-name="Tracé 260" d="M728.5,559.42s-12.211.76-22.034,1.07-36.067-1.411-36.067-1.411v-.013s-27.837-1.419-38.049-1.447a152.825,152.825,0,0,0-21.444,1.312l1.131,13.606s12.21-.76,22.034-1.07,36.067,1.411,36.067,1.411v.013s27.836,1.419,38.049,1.447a152.826,152.826,0,0,0,21.443-1.312Z" transform="translate(-586.227 -544.875)" fill="#050606"/>
      </g>
      <g id="Groupe_50" data-name="Groupe 50" transform="translate(24.746 12.8)">
        <path id="Tracé_261" data-name="Tracé 261" d="M708.183,573.8h-.72c-10.1-.028-37.778-1.433-38.057-1.447l-.146-.008v-.015c-2.107-.137-26.582-1.69-35.91-1.4-9.708.305-21.907,1.062-22.029,1.071l-.144.008-.012-.144-1.144-13.751,1.552-.173a146.515,146.515,0,0,1,20.052-1.156c10.1.027,37.778,1.433,38.057,1.448l.139.021c2.072.134,26.578,1.7,35.915,1.4,9.707-.307,21.907-1.061,22.029-1.07l.144-.01.012.145,1.143,13.75-1.529.17A145.355,145.355,0,0,1,708.183,573.8Zm-38.616-1.737c2.192.111,28.184,1.414,37.9,1.441h.718a145.125,145.125,0,0,0,19.323-1.158l1.242-.139-1.106-13.318c-1.406.085-12.753.772-21.894,1.06-9.715.305-35.818-1.395-36.081-1.411l-.137-.019c-2.155-.108-28.182-1.414-37.9-1.441a144.5,144.5,0,0,0-20.018,1.153l-1.266.143,1.107,13.319c1.406-.086,12.753-.773,21.893-1.061,9.718-.309,35.82,1.392,36.082,1.411l.143.009Z" transform="translate(-610.023 -556.781)" fill="#2a2a2a"/>
        <g id="Groupe_49" data-name="Groupe 49" transform="translate(0.16 0.147)">
          <path id="Tracé_262" data-name="Tracé 262" d="M677.964,562.886a.469.469,0,0,0-.388-.2l-.493-.03c-.089-.005-.133.031-.133.108v1.987a.088.088,0,0,0,.034.07.116.116,0,0,0,.066.028l.525.032a.415.415,0,0,0,.389-.151.779.779,0,0,0,.121-.461c0-.368,0-.551,0-.919A.825.825,0,0,0,677.964,562.886Z" transform="translate(-605.369 -556.505)" fill="#c2ad8d"/>
          <path id="Tracé_263" data-name="Tracé 263" d="M668.812,564.07a.414.414,0,0,0,.385-.144.724.724,0,0,0,.124-.453v-.685a.832.832,0,0,0-.125-.477.475.475,0,0,0-.384-.2l-.46-.034a.092.092,0,0,0-.087.031.127.127,0,0,0-.029.085v1.728a.1.1,0,0,0,.108.117Z" transform="translate(-605.995 -556.547)" fill="#c2ad8d"/>
          <path id="Tracé_264" data-name="Tracé 264" d="M669.284,564.794a.477.477,0,0,0-.388-.2l-.544-.041a.1.1,0,0,0-.116.108v1.953a.112.112,0,0,0,.117.125l.544.041a.4.4,0,0,0,.387-.148.755.755,0,0,0,.121-.458v-.9A.853.853,0,0,0,669.284,564.794Z" transform="translate(-605.995 -556.369)" fill="#c2ad8d"/>
          <path id="Tracé_265" data-name="Tracé 265" d="M650.65,560.964a.472.472,0,0,0-.388-.2l-.577-.033a.1.1,0,0,0-.088.033.121.121,0,0,0-.029.077c0,1.853,0,2.782,0,4.634a.156.156,0,0,0,.025.08.083.083,0,0,0,.068.041l.6.034a.411.411,0,0,0,.388-.153.761.761,0,0,0,.121-.459c0-1.432,0-2.149,0-3.582A.85.85,0,0,0,650.65,560.964Z" transform="translate(-607.338 -556.644)" fill="#c2ad8d"/>
          <path id="Tracé_266" data-name="Tracé 266" d="M691.136,563.465a.548.548,0,0,0-.15-.185.623.623,0,0,0-.2-.107.8.8,0,0,0-.229-.037.834.834,0,0,0-.234.03.6.6,0,0,0-.208.1.5.5,0,0,0-.151.18.6.6,0,0,0-.058.279c0,1.523,0,2.285,0,3.809a.6.6,0,0,0,.059.281.562.562,0,0,0,.15.187.627.627,0,0,0,.209.108.834.834,0,0,0,.234.036.758.758,0,0,0,.229-.03.571.571,0,0,0,.2-.1.531.531,0,0,0,.151-.182.6.6,0,0,0,.058-.279c0-1.522,0-2.284,0-3.809A.6.6,0,0,0,691.136,563.465Z" transform="translate(-604.437 -556.471)" fill="#c2ad8d"/>
          <path id="Tracé_267" data-name="Tracé 267" d="M663.143,564.283c-.022-.141-.048-.3-.075-.478s-.059-.359-.093-.544c-.1-.59-.15-.883-.25-1.473h-.017c-.1.573-.15.861-.25,1.434-.033.181-.064.358-.092.532s-.053.328-.075.466-.04.25-.054.339-.021.134-.021.139a.121.121,0,0,0,.109.143l.785.059a.1.1,0,0,0,.092-.035.109.109,0,0,0,.025-.09c0-.005-.009-.054-.025-.144S663.165,564.423,663.143,564.283Z" transform="translate(-606.428 -556.568)" fill="#c2ad8d"/>
          <path id="Tracé_268" data-name="Tracé 268" d="M636.028,560.465a.444.444,0,0,0-.389-.172h-.492c-.089,0-.134.04-.134.117,0,.8,0,1.193,0,1.989a.08.08,0,0,0,.033.068.112.112,0,0,0,.067.024h.526a.434.434,0,0,0,.388-.174.811.811,0,0,0,.121-.467v-.92A.8.8,0,0,0,636.028,560.465Z" transform="translate(-608.385 -556.675)" fill="#c2ad8d"/>
          <path id="Tracé_269" data-name="Tracé 269" d="M727.765,558.72s-12.21.76-22.034,1.07-36.067-1.41-36.067-1.41v-.013s-27.836-1.42-38.049-1.448a152.8,152.8,0,0,0-21.443,1.313l1.131,13.606s12.21-.76,22.034-1.07,36.066,1.41,36.066,1.41v.013s27.837,1.419,38.05,1.448a152.763,152.763,0,0,0,21.443-1.313Zm-110.8,8.5a.241.241,0,0,1-.134.076l-.166.021c-1,.133-1.5.2-2.5.357v-.25a.707.707,0,0,1,.046-.286.353.353,0,0,1,.129-.159.264.264,0,0,0,.079-.07.161.161,0,0,0,.038-.106c0-1.841,0-2.766,0-4.609a.2.2,0,0,0-.026-.121.188.188,0,0,0-.066-.049.509.509,0,0,1-.134-.121.344.344,0,0,1-.066-.223v-.251c.557-.085.836-.125,1.395-.2v.25a.424.424,0,0,1-.068.243.787.787,0,0,1-.133.161.227.227,0,0,0-.062.068.267.267,0,0,0-.021.129c0,1.836.005,2.757.01,4.591a.245.245,0,0,0,.025.114.074.074,0,0,0,.084.038l.735-.1a.117.117,0,0,0,.088-.058.193.193,0,0,0,.029-.1.286.286,0,0,1,.124-.268.793.793,0,0,1,.31-.1l.349-.046c0,.364,0,.547,0,.91A.23.23,0,0,1,616.961,567.224Zm3.518-.408a.245.245,0,0,1-.154.074l-.517.055c-.652.07-.978.107-1.628.185l-.5.061v-.215a.7.7,0,0,1,.045-.285.337.337,0,0,1,.13-.154.217.217,0,0,0,.108-.189c0-1.845,0-2.77,0-4.617a.164.164,0,0,0-.033-.113.215.215,0,0,0-.075-.058.243.243,0,0,1-.13-.118.558.558,0,0,1-.045-.253v-.241c1.058-.132,1.587-.192,2.645-.3a.2.2,0,0,1,.159.041.162.162,0,0,1,.058.119v.885l-.309.031a.821.821,0,0,1-.3-.014.159.159,0,0,1-.121-.174.18.18,0,0,0-.025-.094.085.085,0,0,0-.092-.035c-.32.034-.48.053-.8.089a.121.121,0,0,0-.079.047.125.125,0,0,0-.037.091v1.746c0,.078.042.112.125.1.4-.045.6-.067.993-.109a.15.15,0,0,1,.088.019.1.1,0,0,1,.046.091v.469a.12.12,0,0,1-.124.13c-.4.043-.6.065-1,.112-.084.01-.125.053-.125.13,0,.779,0,1.168,0,1.946,0,.078.033.113.1.1.334-.039.5-.057.835-.093.061-.006.092-.045.092-.119a.267.267,0,0,1,.113-.22.584.584,0,0,1,.3-.107l.317-.033v.86A.218.218,0,0,1,620.479,566.815Zm6.048-1.007a1.113,1.113,0,0,1-.317.386,1.415,1.415,0,0,1-.467.234,2.593,2.593,0,0,1-.576.1,2.03,2.03,0,0,1-.572-.033,1.122,1.122,0,0,1-.45-.2,1.007,1.007,0,0,1-.3-.374,1.252,1.252,0,0,1-.109-.546c0-1.549,0-2.325,0-3.874a1.348,1.348,0,0,1,.113-.565,1.239,1.239,0,0,1,.3-.416,1.4,1.4,0,0,1,.46-.264,2.187,2.187,0,0,1,.576-.116,2.015,2.015,0,0,1,.571.036,1.209,1.209,0,0,1,.46.2,1,1,0,0,1,.309.373,1.243,1.243,0,0,1,.112.549v.626l-.358.022a.432.432,0,0,1-.339-.109.418.418,0,0,1-.13-.32V561.4a.514.514,0,0,0-.2-.463.678.678,0,0,0-.43-.112.763.763,0,0,0-.43.171.588.588,0,0,0-.2.49c0,1.527,0,2.291,0,3.816a.488.488,0,0,0,.184.4.588.588,0,0,0,.418.129.69.69,0,0,0,.233-.058.675.675,0,0,0,.209-.135.747.747,0,0,0,.15-.193.483.483,0,0,0,.058-.233v-.143a.531.531,0,0,1,.112-.337.443.443,0,0,1,.339-.16l.375-.023v.7A1.224,1.224,0,0,1,626.526,565.809Zm2.947.424v-.25a.4.4,0,0,1,.066-.236.715.715,0,0,1,.134-.148.185.185,0,0,0,.062-.06.244.244,0,0,0,.02-.118c0-.794,0-1.192,0-1.987a.1.1,0,0,0-.117-.112c-.4.016-.6.026-.993.044a.117.117,0,0,0-.125.131c0,.781,0,1.173,0,1.954v.025a.2.2,0,0,0,.025.116.313.313,0,0,0,.058.056.616.616,0,0,1,.134.135.371.371,0,0,1,.068.232v.25c-.554.025-.832.039-1.386.069v-.25a.421.421,0,0,1,.062-.237.65.65,0,0,1,.13-.149.244.244,0,0,0,.066-.061.207.207,0,0,0,.025-.119v-.008c0-1.852,0-2.781,0-4.634a.2.2,0,0,0-.025-.116.4.4,0,0,0-.068-.064.556.556,0,0,1-.13-.134.393.393,0,0,1-.062-.23v-.242c.554-.03.832-.044,1.386-.07v.242a.4.4,0,0,1-.068.237.68.68,0,0,1-.133.148.549.549,0,0,0-.058.07.2.2,0,0,0-.026.118v1.72a.1.1,0,0,0,.042.094.14.14,0,0,0,.085.025c.4-.018.595-.027.993-.043a.11.11,0,0,0,.088-.042.142.142,0,0,0,.029-.088v-1.72a.234.234,0,0,0-.021-.117.265.265,0,0,0-.062-.064.6.6,0,0,1-.134-.136.379.379,0,0,1-.066-.23v-.242c.557-.024.836-.034,1.394-.053v.242a.388.388,0,0,1-.066.236.688.688,0,0,1-.133.146.305.305,0,0,0-.063.07.241.241,0,0,0-.02.118c0,1.853,0,2.782,0,4.634v.008a.229.229,0,0,0,.02.116.16.16,0,0,0,.062.056.634.634,0,0,1,.134.138.379.379,0,0,1,.068.232v.25C630.309,566.2,630.031,566.211,629.473,566.233Zm4.307-.125v-.225a.452.452,0,0,1,.058-.242.506.506,0,0,1,.125-.136.394.394,0,0,0,.071-.068.152.152,0,0,0,.029-.108,2.571,2.571,0,0,0-.042-.293c-.013-.075-.021-.151-.033-.22a1.126,1.126,0,0,1-.016-.146.191.191,0,0,0-.068-.133.218.218,0,0,0-.125-.031c-.38.006-.57.011-.951.019-.09,0-.139.059-.151.169a1.1,1.1,0,0,0-.012.147c0,.07-.011.145-.021.221s-.027.193-.032.294a.222.222,0,0,0,.016.107.178.178,0,0,0,.059.066.47.47,0,0,1,.125.13.447.447,0,0,1,.058.241v.225c-.558.012-.837.019-1.395.036v-.217a.53.53,0,0,1,.062-.257.426.426,0,0,1,.13-.158.6.6,0,0,0,.074-.073.245.245,0,0,0,.05-.106q.233-1.291.424-2.308c.056-.291.109-.575.159-.851s.1-.525.137-.743.076-.394.1-.528.037-.2.037-.21a1,1,0,0,0,.008-.121.066.066,0,0,0-.041-.07q-.209-.079-.209-.437v-.192c.447-.011.671-.016,1.118-.025a.417.417,0,0,1,.309.108.409.409,0,0,1,.134.259c0,.022.014.112.042.267s.063.355.105.6.089.512.141.811.108.607.163.918q.193,1.09.435,2.465a.241.241,0,0,0,.05.1.581.581,0,0,0,.075.07.428.428,0,0,1,.13.145.465.465,0,0,1,.063.245v.234C634.617,566.095,634.338,566.1,633.78,566.108Zm4.584-.024a.382.382,0,0,1-.427-.411v-1.636a.756.756,0,0,0-.121-.457.458.458,0,0,0-.389-.164h-.517c-.073,0-.109.04-.109.118,0,.7,0,1.047,0,1.745a.207.207,0,0,0,.025.117.781.781,0,0,0,.059.067.636.636,0,0,1,.134.141.392.392,0,0,1,.066.234v.241c-.554,0-.831,0-1.385.005v-.242a.391.391,0,0,1,.066-.234.669.669,0,0,1,.134-.143.778.778,0,0,0,.059-.066.211.211,0,0,0,.025-.118c0-1.855,0-2.786,0-4.643a.186.186,0,0,0-.025-.105.154.154,0,0,0-.059-.054.429.429,0,0,1-.192-.4v-.242c.688,0,1.032-.005,1.719,0a1.583,1.583,0,0,1,.61.105,1.146,1.146,0,0,1,.414.292,1.158,1.158,0,0,1,.238.44,2.065,2.065,0,0,1,.075.565v.86a1.1,1.1,0,0,1-.108.488,1.038,1.038,0,0,1-.284.361c-.05.051-.044.106.017.168a.843.843,0,0,1,.284.393,1.63,1.63,0,0,1,.091.561c0,.491,0,.736,0,1.227,0,.056.01.09.03.105s.042.029.071.046a.73.73,0,0,1,.13.106.294.294,0,0,1,.062.212v.326C638.78,566.086,638.64,566.085,638.364,566.084Zm4.983.084v-.276a.378.378,0,0,1,.068-.232.629.629,0,0,1,.133-.137.24.24,0,0,0,.067-.058.2.2,0,0,0,.025-.116c0-1.365,0-2.048,0-3.415a.038.038,0,0,0-.021-.03c-.014-.008-.027,0-.038.029q-.309.542-.55.987-.109.19-.209.374c-.067.124-.129.238-.183.342s-.1.193-.143.265a1.288,1.288,0,0,0-.066.132.164.164,0,0,1-.1.085.489.489,0,0,1-.176.026.5.5,0,0,1-.175-.033.188.188,0,0,1-.105-.081q-.016-.026-.071-.135t-.138-.267l-.188-.349c-.07-.13-.137-.259-.2-.388q-.241-.465-.542-1.021c-.006-.012-.013-.017-.021-.018s-.012.012-.012.034c0,1.367,0,2.051,0,3.416v.007a.231.231,0,0,0,.021.118.184.184,0,0,0,.062.059.7.7,0,0,1,.133.144.391.391,0,0,1,.068.236v.25c-.557-.01-.836-.014-1.393-.02v-.25a.382.382,0,0,1,.066-.234.678.678,0,0,1,.133-.14.205.205,0,0,0,.066-.057.2.2,0,0,0,.026-.117c0-1.893,0-2.842,0-4.736a.365.365,0,0,1-.143-.086.475.475,0,0,1-.1-.138.542.542,0,0,1-.042-.23v-.258l.868.012a.2.2,0,0,1,.1.035.192.192,0,0,1,.079.092c.04.1.1.232.184.409s.178.372.284.585.215.432.33.654.22.426.317.612l.242.464a1.619,1.619,0,0,0,.113.2c.011.029.024.041.037.034a.074.074,0,0,0,.038-.032,1.178,1.178,0,0,1,.071-.132c.047-.083.106-.193.176-.33s.149-.292.241-.462l.28-.519.75-1.416a.191.191,0,0,1,.084-.1.269.269,0,0,1,.117-.021l.8.026v.258a.473.473,0,0,1-.143.362.358.358,0,0,1-.142.079c0,1.88,0,2.822,0,4.7a.2.2,0,0,0,.026.118.227.227,0,0,0,.066.06.762.762,0,0,1,.134.147.428.428,0,0,1,.066.252v.267C644.168,566.191,643.9,566.183,643.347,566.168Zm4.779.114a.209.209,0,0,1-.154.05l-.518-.021c-.651-.027-.977-.04-1.627-.063l-.5-.018v-.217a.649.649,0,0,1,.046-.278.272.272,0,0,1,.13-.134.178.178,0,0,0,.108-.17c0-1.846,0-2.771,0-4.619a.2.2,0,0,0-.033-.118.322.322,0,0,0-.075-.069.3.3,0,0,1-.13-.139.591.591,0,0,1-.046-.259v-.242c1.058.036,1.588.058,2.646.1a.227.227,0,0,1,.159.064.186.186,0,0,1,.059.129v.884l-.309-.014a.833.833,0,0,1-.3-.058.189.189,0,0,1-.121-.192.214.214,0,0,0-.025-.1.1.1,0,0,0-.092-.049l-.8-.032a.1.1,0,0,0-.079.034.117.117,0,0,0-.038.086v1.746c0,.079.042.119.125.122.4.015.6.024.994.041a.157.157,0,0,1,.088.033.107.107,0,0,1,.046.1v.467c0,.077-.042.116-.125.112l-1-.04c-.083,0-.124.033-.124.11,0,.779,0,1.168,0,1.946,0,.078.033.118.1.121l.835.033c.061,0,.092-.032.092-.105a.225.225,0,0,1,.113-.2.533.533,0,0,1,.3-.062l.317.014v.86A.19.19,0,0,1,648.126,566.281Zm5.993,0a1.2,1.2,0,0,1-1.022.311c-.718-.041-1.077-.061-1.8-.1v-.225a.618.618,0,0,1,.049-.277.306.306,0,0,1,.134-.13.177.177,0,0,0,.1-.169c0-1.843,0-2.766,0-4.609a.209.209,0,0,0-.034-.123.183.183,0,0,0-.074-.065.309.309,0,0,1-.13-.141.6.6,0,0,1-.046-.26v-.242c.718.039,1.077.058,1.794.1a1.762,1.762,0,0,1,.61.131,1.156,1.156,0,0,1,.413.3,1.137,1.137,0,0,1,.239.439,2.025,2.025,0,0,1,.075.565c0,1.412,0,2.119,0,3.531A1.4,1.4,0,0,1,654.119,566.281Zm3.891.562a.2.2,0,0,1-.154.047l-.518-.034c-.651-.043-.976-.064-1.628-.105l-.5-.031V566.5a.639.639,0,0,1,.046-.277.267.267,0,0,1,.13-.131.173.173,0,0,0,.108-.167c0-1.846,0-2.77,0-4.617a.2.2,0,0,0-.033-.119.31.31,0,0,0-.075-.071.318.318,0,0,1-.13-.143.6.6,0,0,1-.046-.261v-.242c1.058.066,1.588.1,2.647.171a.236.236,0,0,1,.159.069.194.194,0,0,1,.058.13v.884l-.309-.02a.9.9,0,0,1-.3-.065.2.2,0,0,1-.121-.2.213.213,0,0,0-.025-.1.1.1,0,0,0-.092-.052l-.8-.052a.1.1,0,0,0-.079.032.113.113,0,0,0-.037.085c0,.7,0,1.047,0,1.746,0,.078.042.119.124.124l.994.065a.171.171,0,0,1,.088.035.11.11,0,0,1,.046.1v.467c0,.078-.042.115-.124.109l-1-.067c-.084-.005-.125.031-.125.108,0,.778,0,1.167,0,1.945,0,.078.033.119.1.123l.835.055c.061,0,.092-.029.092-.1a.22.22,0,0,1,.113-.2.518.518,0,0,1,.3-.055l.317.021v.86A.183.183,0,0,1,658.01,566.843Zm5.973.425a.192.192,0,0,1-.134.048l-.166-.013c-1-.074-1.5-.11-2.5-.181v-.25a.637.637,0,0,1,.046-.277.248.248,0,0,1,.13-.129.219.219,0,0,0,.079-.053.135.135,0,0,0,.037-.1c0-1.842,0-2.765,0-4.608a.225.225,0,0,0-.026-.126.252.252,0,0,0-.066-.063.732.732,0,0,1-.134-.151.416.416,0,0,1-.067-.239v-.25l1.395.1v.25a.365.365,0,0,1-.068.229.591.591,0,0,1-.133.132.155.155,0,0,0-.062.054.24.24,0,0,0-.021.124c0,1.836.006,2.756.01,4.591a.262.262,0,0,0,.026.119.093.093,0,0,0,.084.056l.734.054a.09.09,0,0,0,.088-.039.167.167,0,0,0,.029-.093c0-.129.042-.209.125-.242a.719.719,0,0,1,.309-.035l.351.027v.909A.188.188,0,0,1,663.983,567.269Zm2.938.279v-.226a.426.426,0,0,1,.058-.237.458.458,0,0,1,.125-.124.4.4,0,0,0,.071-.061.144.144,0,0,0,.029-.106,2.7,2.7,0,0,0-.042-.3c-.013-.076-.021-.152-.033-.223a1.161,1.161,0,0,1-.016-.147.208.208,0,0,0-.068-.138.231.231,0,0,0-.125-.043l-.951-.072c-.09-.008-.139.045-.151.155a1.02,1.02,0,0,0-.012.145c0,.07-.011.144-.021.22s-.028.19-.033.289a.249.249,0,0,0,.017.109.208.208,0,0,0,.059.072.524.524,0,0,1,.124.143.459.459,0,0,1,.059.245v.226l-1.393-.105v-.217a.477.477,0,0,1,.062-.25.364.364,0,0,1,.13-.145.614.614,0,0,0,.074-.064.227.227,0,0,0,.05-.1q.233-1.267.425-2.263c.056-.285.109-.564.159-.836s.1-.515.138-.728.075-.387.1-.518.037-.2.037-.207a.985.985,0,0,0,.008-.12.073.073,0,0,0-.042-.074c-.139-.066-.208-.219-.208-.458V561.2l1.118.084a.468.468,0,0,1,.443.408c0,.023.014.114.042.271s.063.359.105.6.089.52.142.824.108.615.163.931q.195,1.108.435,2.5a.275.275,0,0,0,.05.108.71.71,0,0,0,.075.076.478.478,0,0,1,.13.155.494.494,0,0,1,.062.251v.234Zm10.924-6.432.392-.289c0-.017.009-.017.026,0l.71,1.083c.017,0,.017.01,0,.025l-.225.185a.034.034,0,0,1-.026-.011l-.877-.969C677.829,561.123,677.829,561.115,677.845,561.116Zm-3.753,6.6a1.181,1.181,0,0,1-1.018.3l-1.77-.133v-.25a.574.574,0,0,1,.046-.255.254.254,0,0,1,.13-.123.164.164,0,0,0,.075-.058.186.186,0,0,0,.033-.118c0-1.832,0-2.75,0-4.583a.21.21,0,0,0-.1-.183c-.122-.064-.183-.216-.183-.456v-.217l1.686.125a1.375,1.375,0,0,1,1.019.437,1.558,1.558,0,0,1,.309,1v.735a1.1,1.1,0,0,1-.088.452.886.886,0,0,1-.247.325.116.116,0,0,0-.042.088.128.128,0,0,0,.059.1,1.034,1.034,0,0,1,.3.4,1.365,1.365,0,0,1,.1.541v.91A1.415,1.415,0,0,1,674.092,567.715Zm2.479.549-1.395-.1v-.25a.387.387,0,0,1,.058-.225.493.493,0,0,1,.143-.136.164.164,0,0,0,.062-.054.206.206,0,0,0,.021-.107v-.016c0-1.849,0-2.775,0-4.625a.258.258,0,0,0-.02-.118.313.313,0,0,0-.063-.072.711.711,0,0,1-.134-.151.414.414,0,0,1-.066-.239v-.241l1.395.1v.242a.364.364,0,0,1-.068.229.567.567,0,0,1-.133.132.249.249,0,0,0-.062.063.209.209,0,0,0-.021.115c0,1.85,0,2.776,0,4.625v.016a.191.191,0,0,0,.025.11.322.322,0,0,0,.059.062.73.73,0,0,1,.133.151.406.406,0,0,1,.068.239Zm3.492.179a.2.2,0,0,1-.153.048l-.518-.034c-.652-.043-.978-.065-1.628-.11l-.5-.034V568.1a.661.661,0,0,1,.045-.277.27.27,0,0,1,.13-.129.172.172,0,0,0,.108-.167c0-1.846,0-2.77,0-4.617a.2.2,0,0,0-.033-.119.318.318,0,0,0-.075-.072.306.306,0,0,1-.13-.143.605.605,0,0,1-.046-.262v-.242c1.058.074,1.588.109,2.647.179a.229.229,0,0,1,.159.069.19.19,0,0,1,.058.129v.884l-.309-.02a.847.847,0,0,1-.3-.065.193.193,0,0,1-.121-.2.213.213,0,0,0-.025-.1.1.1,0,0,0-.092-.052c-.321-.02-.481-.032-.8-.054a.1.1,0,0,0-.079.032.113.113,0,0,0-.037.085c0,.7,0,1.047,0,1.746,0,.078.042.119.125.125l.993.066a.163.163,0,0,1,.088.035.109.109,0,0,1,.046.1v.467c0,.077-.042.114-.124.108l-1-.066c-.084-.006-.125.03-.125.107v1.944c0,.078.034.12.1.124l.835.056c.061,0,.092-.029.092-.1a.221.221,0,0,1,.112-.2.526.526,0,0,1,.306-.055l.317.021v.86A.184.184,0,0,1,680.064,568.442Zm3.945.3-.694-.041a.4.4,0,0,1-.426-.433v-1.636a.788.788,0,0,0-.121-.463.483.483,0,0,0-.388-.185l-.518-.032c-.073,0-.108.033-.108.11v1.745a.215.215,0,0,0,.025.118.694.694,0,0,0,.059.071.7.7,0,0,1,.134.15.406.406,0,0,1,.067.237v.242l-1.386-.087V568.3a.373.373,0,0,1,.066-.229.6.6,0,0,1,.134-.133.549.549,0,0,0,.059-.063.2.2,0,0,0,.025-.115c0-1.856,0-2.785,0-4.641a.192.192,0,0,0-.025-.106.185.185,0,0,0-.058-.058.468.468,0,0,1-.193-.413V562.3c.688.044,1.032.065,1.719.107a1.659,1.659,0,0,1,.61.141,1.184,1.184,0,0,1,.652.764,2.025,2.025,0,0,1,.075.568v.86a1.064,1.064,0,0,1-.107.482.987.987,0,0,1-.284.346c-.05.048-.045.1.017.169a.892.892,0,0,1,.283.407,1.672,1.672,0,0,1,.092.565v1.227c0,.056.01.091.03.106s.043.031.071.049a.768.768,0,0,1,.13.112.308.308,0,0,1,.062.217Zm3.327.117a.209.209,0,0,1-.154.05l-.518-.026c-.651-.032-.977-.049-1.628-.085l-.5-.028v-.215a.642.642,0,0,1,.046-.278.265.265,0,0,1,.13-.131.176.176,0,0,0,.108-.169c0-1.846,0-2.77,0-4.617a.194.194,0,0,0-.033-.119.286.286,0,0,0-.075-.07.322.322,0,0,1-.13-.142.614.614,0,0,1-.046-.26v-.242c1.059.059,1.587.087,2.647.137a.226.226,0,0,1,.159.066.185.185,0,0,1,.058.128v.884l-.309-.015a.865.865,0,0,1-.3-.06.192.192,0,0,1-.121-.193.2.2,0,0,0-.025-.1.1.1,0,0,0-.092-.05l-.8-.042a.1.1,0,0,0-.079.034.109.109,0,0,0-.038.085v1.745c0,.078.042.12.125.124l.994.05a.166.166,0,0,1,.088.033.113.113,0,0,1,.046.1v.467c0,.077-.042.115-.125.111l-1-.052c-.084,0-.124.032-.124.109v1.945c0,.078.033.118.1.122l.835.043c.061,0,.092-.031.092-.105a.225.225,0,0,1,.113-.2.528.528,0,0,1,.3-.06l.317.015v.861A.186.186,0,0,1,687.336,568.859Zm6.731-5.446a.49.49,0,0,1-.125.131.4.4,0,0,0-.075.073.286.286,0,0,0-.05.107c-.144.96-.27,1.822-.383,2.58-.048.326-.1.645-.146.956s-.089.589-.124.835-.067.448-.092.6-.037.238-.037.249a.257.257,0,0,1-.055.128.148.148,0,0,1-.129.06l-.9-.029a.225.225,0,0,1-.235-.215c-.022-.16-.07-.405-.124-.726s-.118-.675-.184-1.059-.137-.777-.209-1.18-.138-.773-.2-1.111-.106-.613-.146-.831-.059-.337-.059-.354a.374.374,0,0,0-.038-.118.263.263,0,0,0-.062-.07.494.494,0,0,1-.125-.137.436.436,0,0,1-.059-.237v-.25c.531.02.8.029,1.327.047v.25a.434.434,0,0,1-.054.236.411.411,0,0,1-.121.125.225.225,0,0,0-.062.065.166.166,0,0,0,0,.117q.2,1.309.36,2.334c.044.292.089.577.133.856s.086.529.122.747.076.461.121.73a.96.96,0,0,0,.041-.2q.034-.2.084-.524t.108-.74c.039-.277.081-.56.125-.848.1-.673.208-1.446.325-2.312a.294.294,0,0,0-.017-.117.2.2,0,0,0-.058-.07.543.543,0,0,1-.117-.132.426.426,0,0,1-.059-.24v-.25c.545.016.817.024,1.36.036v.25A.423.423,0,0,1,694.067,563.413Zm3.57,5.185a1.108,1.108,0,0,1-.309.393,1.266,1.266,0,0,1-.463.228,2.231,2.231,0,0,1-1.151-.018,1.334,1.334,0,0,1-.468-.242,1.15,1.15,0,0,1-.313-.4,1.3,1.3,0,0,1-.113-.557c0-1.55,0-2.325,0-3.875a1.267,1.267,0,0,1,.112-.553,1.04,1.04,0,0,1,.312-.386,1.333,1.333,0,0,1,.469-.221,2.114,2.114,0,0,1,.576-.065,2.206,2.206,0,0,1,.577.082,1.343,1.343,0,0,1,.463.236,1.093,1.093,0,0,1,.309.394,1.3,1.3,0,0,1,.112.556c0,1.55,0,2.326,0,3.876A1.253,1.253,0,0,1,697.636,568.6Zm3.969,0a1.149,1.149,0,0,1-.333.4,1.451,1.451,0,0,1-.485.233,2.294,2.294,0,0,1-1.168,0,1.4,1.4,0,0,1-.48-.23,1.134,1.134,0,0,1-.326-.393,1.214,1.214,0,0,1-.121-.555v-.626h.4a.486.486,0,0,1,.338.105.381.381,0,0,1,.114.3v.359a.306.306,0,0,0,.062.191.548.548,0,0,0,.159.143.843.843,0,0,0,.213.091.8.8,0,0,0,.225.033.709.709,0,0,0,.225-.039.9.9,0,0,0,.218-.1.565.565,0,0,0,.163-.151.331.331,0,0,0,.062-.2v-.885a.73.73,0,0,0-.155-.471,1.679,1.679,0,0,0-.388-.354q-.233-.158-.5-.313a3.93,3.93,0,0,1-.5-.338,1.668,1.668,0,0,1-.388-.431,1.1,1.1,0,0,1-.155-.6v-.594a1.366,1.366,0,0,1,.108-.571,1.073,1.073,0,0,1,.3-.391,1.207,1.207,0,0,1,.451-.224,2.135,2.135,0,0,1,.567-.073,2.031,2.031,0,0,1,.572.077,1.389,1.389,0,0,1,.459.23,1.042,1.042,0,0,1,.305.389,1.332,1.332,0,0,1,.108.555v.619l-.375,0a.486.486,0,0,1-.351-.132.434.434,0,0,1-.143-.333v-.309a.276.276,0,0,0-.058-.175.446.446,0,0,0-.147-.12.7.7,0,0,0-.192-.067,1.054,1.054,0,0,0-.188-.02.837.837,0,0,0-.384.1.5.5,0,0,0-.15.121.248.248,0,0,0-.059.163v.828a.436.436,0,0,0,.159.317,2.792,2.792,0,0,0,.391.3c.156.1.327.211.514.324a3.669,3.669,0,0,1,.513.376,2.069,2.069,0,0,1,.392.465,1.111,1.111,0,0,1,.159.592v.818A1.184,1.184,0,0,1,701.606,568.6Zm3.7.6-.075,0a.088.088,0,0,1-.062-.019.15.15,0,0,1-.029-.036c-.056-.093-.109-.14-.159-.141a.247.247,0,0,0-.143.041.826.826,0,0,1-.2.089,2.605,2.605,0,0,1-.258.064,2.734,2.734,0,0,1-.276.045c-.092.011-.179.017-.263.019a1.413,1.413,0,0,1-.96-.292,1.154,1.154,0,0,1-.368-.945c0-1.55,0-2.326,0-3.876a1.387,1.387,0,0,1,.1-.557,1.062,1.062,0,0,1,.293-.4,1.263,1.263,0,0,1,.45-.237,2.127,2.127,0,0,1,.571-.088,2.077,2.077,0,0,1,.577.062,1.318,1.318,0,0,1,.467.216,1.068,1.068,0,0,1,.317.384,1.221,1.221,0,0,1,.117.552v.568l-.368.011a.443.443,0,0,1-.13-.02.651.651,0,0,1-.15-.068.506.506,0,0,1-.125-.109.238.238,0,0,1-.054-.158v-.167a.6.6,0,0,0-.059-.278.544.544,0,0,0-.15-.181.616.616,0,0,0-.209-.1.836.836,0,0,0-.234-.028.7.7,0,0,0-.414.141.561.561,0,0,0-.179.472c0,1.521,0,2.282,0,3.8a.536.536,0,0,0,.18.464.654.654,0,0,0,.413.124.776.776,0,0,0,.225-.039.682.682,0,0,0,.213-.108.533.533,0,0,0,.154-.189.615.615,0,0,0,.059-.281v-1.119a.181.181,0,0,0-.133-.2.294.294,0,0,1-.18-.113.6.6,0,0,1-.062-.324v-.2c.4-.01.6-.015.994-.027a.3.3,0,0,1,.129.034.156.156,0,0,1,.079.16c0,1.183,0,1.775,0,2.956C705.4,569.166,705.37,569.195,705.3,569.2Zm.793-.066v-.251a.412.412,0,0,1,.059-.232.594.594,0,0,1,.141-.151.177.177,0,0,0,.062-.06.221.221,0,0,0,.021-.109v-.017c0-1.849,0-2.776,0-4.628a.229.229,0,0,0-.02-.116.252.252,0,0,0-.062-.065.622.622,0,0,1-.134-.136.376.376,0,0,1-.066-.232v-.241c.558-.02.837-.031,1.395-.055v.242a.406.406,0,0,1-.066.237.67.67,0,0,1-.134.147.3.3,0,0,0-.062.07.243.243,0,0,0-.02.118c0,1.851,0,2.778,0,4.629v.016a.184.184,0,0,0,.025.107.263.263,0,0,0,.059.056.629.629,0,0,1,.133.137.37.37,0,0,1,.068.23v.25C706.934,569.1,706.656,569.11,706.1,569.13Zm4.8-.295a.238.238,0,0,1-.154.068l-.518.032c-.651.039-.977.057-1.628.089l-.5.025v-.217a.674.674,0,0,1,.046-.282.311.311,0,0,1,.13-.145.2.2,0,0,0,.108-.18c0-1.846,0-2.772,0-4.62a.174.174,0,0,0-.033-.115.238.238,0,0,0-.075-.062.275.275,0,0,1-.13-.129.585.585,0,0,1-.046-.256V562.8c1.059-.049,1.588-.078,2.647-.146a.2.2,0,0,1,.159.048.166.166,0,0,1,.058.121c0,.354,0,.532,0,.885l-.309.019a.818.818,0,0,1-.3-.027.169.169,0,0,1-.121-.18.2.2,0,0,0-.025-.1.09.09,0,0,0-.092-.04l-.8.045a.116.116,0,0,0-.079.042.129.129,0,0,0-.038.09v1.746c0,.078.042.115.125.11.4-.021.6-.033.994-.058a.154.154,0,0,1,.087.025.1.1,0,0,1,.046.093v.467c0,.078-.041.12-.124.125l-1,.058q-.125.007-.125.122c0,.779,0,1.168,0,1.947,0,.078.033.115.1.111.334-.018.5-.028.835-.048.061,0,.092-.041.092-.114a.254.254,0,0,1,.112-.215.571.571,0,0,1,.3-.094l.317-.02v.861A.213.213,0,0,1,710.9,568.835Zm4.151-6.04a.8.8,0,0,1-.133.154.436.436,0,0,0-.055.072.282.282,0,0,0-.029.112c0,2.094,0,3.145,0,5.236a.262.262,0,0,1-.049.154.19.19,0,0,1-.15.08c-.194.018-.291.027-.484.043a.143.143,0,0,1-.154-.078,1.269,1.269,0,0,1-.088-.226c-.011-.026-.047-.134-.108-.32s-.135-.412-.222-.675-.178-.542-.276-.841l-.271-.831-.209-.639c-.056-.171-.084-.259-.084-.266a.122.122,0,0,0-.017-.024c-.005-.005-.009.01-.009.043,0,1.267,0,1.9,0,3.165a.208.208,0,0,0,.026.123.185.185,0,0,0,.067.053.53.53,0,0,1,.13.133.379.379,0,0,1,.062.228v.25c-.521.042-.781.061-1.3.1v-.251a.4.4,0,0,1,.068-.238.769.769,0,0,1,.133-.152.292.292,0,0,0,.059-.062.211.211,0,0,0,.025-.118c0-1.883,0-2.828,0-4.711a.465.465,0,0,1-.141-.082.409.409,0,0,1-.1-.132.5.5,0,0,1-.042-.226v-.276c.376-.026.565-.04.942-.069a.206.206,0,0,1,.151.034.254.254,0,0,1,.075.123c0,.011.028.1.084.278s.125.389.209.647.174.539.271.847.19.6.276.879.164.526.23.737.111.353.134.422a.134.134,0,0,0,.02.032c.009.011.013.008.012-.01,0-1.323,0-1.985,0-3.308a.187.187,0,0,0-.025-.115.636.636,0,0,0-.058-.062.6.6,0,0,1-.134-.13.363.363,0,0,1-.066-.228v-.242c.521-.044.781-.068,1.3-.116v.241A.42.42,0,0,1,715.052,562.794Zm4.032-.436a.834.834,0,0,1-.134.159.435.435,0,0,0-.054.073.3.3,0,0,0-.029.113c0,2.095,0,3.145,0,5.236a.27.27,0,0,1-.049.155.2.2,0,0,1-.151.085l-.484.058a.139.139,0,0,1-.154-.074,1.234,1.234,0,0,1-.088-.223q-.016-.04-.109-.317c-.061-.184-.134-.407-.221-.668s-.178-.538-.275-.833l-.272-.823q-.124-.379-.209-.633c-.055-.168-.084-.256-.084-.263a.09.09,0,0,0-.016-.024c-.005,0-.009.01-.009.044,0,1.266,0,1.9,0,3.164a.208.208,0,0,0,.026.123.179.179,0,0,0,.067.05.523.523,0,0,1,.13.129.374.374,0,0,1,.062.227v.25c-.521.056-.781.083-1.3.134v-.25a.422.422,0,0,1,.066-.24.779.779,0,0,1,.134-.155.334.334,0,0,0,.059-.064.219.219,0,0,0,.025-.119c0-1.883,0-2.827,0-4.711a.437.437,0,0,1-.141-.077.411.411,0,0,1-.1-.129.524.524,0,0,1-.042-.225v-.275c.377-.036.566-.056.943-.1a.2.2,0,0,1,.151.029.251.251,0,0,1,.074.122c0,.011.028.1.085.274s.125.386.208.642.175.534.272.838.19.594.276.871.163.521.23.73.112.349.133.419a.232.232,0,0,0,.021.031c.009.01.012.006.012-.01,0-1.323,0-1.985,0-3.308a.185.185,0,0,0-.025-.115.508.508,0,0,0-.059-.06.581.581,0,0,1-.133-.127.353.353,0,0,1-.068-.226v-.242c.521-.059.781-.09,1.3-.154v.241A.432.432,0,0,1,719.083,562.358Zm3.478,5.232a.254.254,0,0,1-.154.081l-.517.077c-.652.1-.978.141-1.628.227l-.5.067v-.217a.719.719,0,0,1,.045-.285.359.359,0,0,1,.13-.155.218.218,0,0,0,.108-.189v-4.619a.165.165,0,0,0-.034-.113.231.231,0,0,0-.074-.057.235.235,0,0,1-.131-.117.558.558,0,0,1-.045-.253V561.8c1.058-.137,1.588-.21,2.646-.37a.191.191,0,0,1,.159.033.153.153,0,0,1,.058.117v.884l-.309.047a.8.8,0,0,1-.3,0,.152.152,0,0,1-.121-.169.179.179,0,0,0-.025-.093.083.083,0,0,0-.092-.032c-.32.047-.48.07-.8.115a.125.125,0,0,0-.079.048.135.135,0,0,0-.037.092v1.746q0,.117.125.1c.4-.055.6-.084.994-.142a.136.136,0,0,1,.087.016.089.089,0,0,1,.047.089v.468a.127.127,0,0,1-.125.135c-.4.059-.6.088-1,.144a.124.124,0,0,0-.124.133V567.1c0,.078.034.112.1.1.333-.046.5-.07.835-.119.06-.009.091-.048.091-.122a.278.278,0,0,1,.112-.224.621.621,0,0,1,.3-.121l.317-.048v.86A.229.229,0,0,1,722.562,567.59Z" transform="translate(-610.172 -556.918)" fill="#c2ad8d"/>
          <path id="Tracé_270" data-name="Tracé 270" d="M632.226,562.939c-.023-.138-.048-.295-.076-.471s-.058-.354-.092-.537c-.1-.579-.15-.869-.25-1.449h-.017c-.1.583-.15.875-.25,1.459-.033.183-.064.365-.092.54s-.052.333-.075.474-.041.254-.054.344-.021.137-.021.142a.113.113,0,0,0,.026.1.106.106,0,0,0,.084.035l.785-.015a.114.114,0,0,0,.092-.044.116.116,0,0,0,.025-.092q0-.008-.026-.141C632.268,563.192,632.248,563.078,632.226,562.939Z" transform="translate(-608.652 -556.662)" fill="#c2ad8d"/>
        </g>
      </g>
      <g id="Groupe_51" data-name="Groupe 51" transform="translate(130.715 7.409)">
        <path id="Tracé_271" data-name="Tracé 271" d="M709.759,554.9l12.423,2.351.834,11.783,11.274-1.9-1.166-15.227Z" transform="translate(-708.818 -551.741)" fill="#c2ad8d"/>
        <path id="Tracé_272" data-name="Tracé 272" d="M722.945,569.219l-.838-11.831-13.226-2.5,24.443-3.132,1.188,15.516Zm-12.179-14.278,11.62,2.2.832,11.734,10.98-1.852-1.144-14.938Z" transform="translate(-708.881 -551.752)" fill="#2a2a2a"/>
      </g>
      <g id="Groupe_52" data-name="Groupe 52" transform="translate(142.884)">
        <path id="Tracé_273" data-name="Tracé 273" d="M721.166,550.141l23.366-5.11-3.187,7.74,4.224,7.352-10.893,2.7-.7-11.648Z" transform="translate(-720.167 -544.826)" fill="#c2ad8d"/>
        <path id="Tracé_274" data-name="Tracé 274" d="M734.605,563.025l-.707-11.7-13.664-1.106,24.608-5.382-3.267,7.934,4.286,7.458Zm-12.374-12.937,11.947.965.7,11.6,10.53-2.613-4.162-7.244.028-.067,3.081-7.481Z" transform="translate(-720.234 -544.84)" fill="#2a2a2a"/>
      </g>
      <g id="Groupe_53" data-name="Groupe 53" transform="translate(12.165 17.639)">
        <path id="Tracé_275" data-name="Tracé 275" d="M622.966,575.589l-12.424-2.351-.835-11.783-11.274,1.9,1.166,15.227Z" transform="translate(-598.276 -561.283)" fill="#c2ad8d"/>
        <path id="Tracé_276" data-name="Tracé 276" d="M599.475,578.762l-1.188-15.516,11.567-1.951.837,11.831,13.227,2.5Zm-.873-15.27,1.143,14.938,22.289-2.858-11.621-2.2-.831-11.734Z" transform="translate(-598.287 -561.295)" fill="#2a2a2a"/>
      </g>
      <g id="Groupe_54" data-name="Groupe 54" transform="translate(0 24.33)">
        <path id="Tracé_277" data-name="Tracé 277" d="M611.551,580.395l-23.366,5.11,3.188-7.74-4.224-7.352,10.893-2.7.7,11.648Z" transform="translate(-586.923 -567.524)" fill="#c2ad8d"/>
        <path id="Tracé_278" data-name="Tracé 278" d="M587.956,585.722l3.266-7.935-4.284-7.458,11.254-2.792.708,11.7,13.664,1.105Zm-.568-15.2,4.163,7.243-.028.068-3.081,7.48,22.125-4.839-11.947-.966-.7-11.6Z" transform="translate(-586.938 -567.537)" fill="#2a2a2a"/>
      </g>
    </g>
  </g>
</svg>
