<svg xmlns="http://www.w3.org/2000/svg" width="128.072" height="112.723" viewBox="0 0 128.072 112.723">
  <path id="Tracé_136850" data-name="Tracé 136850" d="M53.284,109.212a1.424,1.424,0,0,1-1.337,1.5c-.982.057-1.969.087-2.955.087A52.618,52.618,0,0,1,22.6,103.658a1.423,1.423,0,0,1,1.44-2.456,49.709,49.709,0,0,0,27.745,6.673A1.42,1.42,0,0,1,53.284,109.212ZM26.411,97.879a1.407,1.407,0,0,0,.333.038,1.426,1.426,0,0,0,1.383-1.091l7.4-30.788a1.423,1.423,0,0,0-2.767-.664l-7.4,30.788A1.425,1.425,0,0,0,26.411,97.879ZM115.03,101.2a49.7,49.7,0,0,1-27.745,6.673,1.422,1.422,0,0,0-.165,2.84q1.475.085,2.957.087a52.609,52.609,0,0,0,26.391-7.142,1.424,1.424,0,0,0-1.438-2.457Zm13-6.737a1.428,1.428,0,0,1-.144.087l-6.1,3.2c.233.479.46.963.713,1.434l4.782,8.846a2.915,2.915,0,0,1-2,4.451L83.262,122.586a3.589,3.589,0,0,1-2.888-.45,3.2,3.2,0,0,1-.9-2.611l.24-10.055a40,40,0,0,0-1.091-10.194L73.033,76.055a5.937,5.937,0,0,1-4.055,1.508,7.6,7.6,0,0,1-1.165-.091,7.464,7.464,0,0,1-1.973-.642L60.447,99.278a39.569,39.569,0,0,0-1.083,10.193l.23,10.058a3.183,3.183,0,0,1-1.051,2.676,3.386,3.386,0,0,1-2.743.383L13.775,112.481a3.29,3.29,0,0,1-2.34-1.571,3.456,3.456,0,0,1,.35-2.877l4.783-8.85c.253-.47.481-.952.716-1.43l-6.105-3.2a1.483,1.483,0,0,1-.144-.087A12.65,12.65,0,0,1,6.653,78.74l6.276-16.053a6.956,6.956,0,0,1,8.212-4.147l6.2,1.491,2.2-9.156c-.324-1.427-.892-5.483,2.306-8.17,4.247-3.571,8.083-2.562,10.345-.962A13.954,13.954,0,0,1,52.608,35.5c6.014-.539,10.785,3.654,12.317,5.2a8.046,8.046,0,0,1,7.212,3.756,1.409,1.409,0,0,1,.208.6,37.131,37.131,0,0,1,4.027-.548,11.77,11.77,0,0,1,9.5-4.626h.112a12.188,12.188,0,0,1,8.5,3.063c2.507-1.9,7.3-3.567,12.22.507a8.436,8.436,0,0,1,2.794,7.381l2.212,9.2,6.2-1.491a6.959,6.959,0,0,1,8.211,4.146l6.309,16.127A12.621,12.621,0,0,1,128.032,94.464ZM119.085,90.5l4.792-2.423a5.07,5.07,0,0,0,1.663-6.292l-.088-.213-6.245-16.019-5.819,1.4L118.839,89.6C118.91,89.907,119.005,90.2,119.085,90.5ZM32.394,50.527a1.366,1.366,0,0,1,.038.354c.522,1.111,2.84,4.985,9.681,4.825a1.421,1.421,0,0,1,1.241.682c2.8,4.577,10.345,9.732,15.235,7.966-.471-6.578,2.629-12.868,8.675-17.271A10.361,10.361,0,0,1,69.63,45.83a5.294,5.294,0,0,0-5.007-2.264,1.441,1.441,0,0,1-1.332-.465c-.046-.053-4.68-5.308-10.426-4.773a11.585,11.585,0,0,0-9.072,6.193c-.016.034-.036.065-.054.1a13.832,13.832,0,0,0-1.115,2.508,1.423,1.423,0,0,1-2.729-.805,15.422,15.422,0,0,1,.855-2.109c-1.17-.909-3.725-2.141-7.064.666C31.276,46.9,32.384,50.491,32.394,50.527ZM25.681,66.955l-5.821-1.4L13.553,81.729a5.092,5.092,0,0,0,1.638,6.35l4.8,2.426c.08-.3.175-.6.248-.9ZM18.448,95.149c.25-.62.479-1.246.7-1.878l-5.328-2.695a1.8,1.8,0,0,1-.162-.1,7.9,7.9,0,0,1-2.7-9.891l.034-.088,6.367-16.342a2.427,2.427,0,0,1,2.792-1.46l6.2,1.491.334-1.393-6.2-1.491a4.117,4.117,0,0,0-4.9,2.417L9.274,79.846a9.838,9.838,0,0,0,3.3,12.225ZM63.324,75.11a15.471,15.471,0,0,1-4.256-7.659c-.02-.08-.03-.161-.048-.24a9.364,9.364,0,0,1-2.634.381c-5.644,0-11.932-4.524-15.018-9.039-5.1-.1-8.1-2.106-9.79-3.954L23.005,90.27a42.334,42.334,0,0,1-3.933,10.264l-4.783,8.848a.231.231,0,0,0,.145.327l42.032,10.108a.2.2,0,0,0,.2-.041.218.218,0,0,0,.085-.184l-.23-10.058a42.393,42.393,0,0,1,1.16-10.924Zm8.542-3.93a1.494,1.494,0,0,1,.9-1.609c.038-.014,4.008-1.551,4.332-4.47a1.423,1.423,0,0,1,1.414-1.266c.316,0,.666.013,1.043.024,3.356.122,7.167.258,7.757-6.148a1.422,1.422,0,0,1,1.851-1.224c6.346,2.036,10.455.482,12.559-4.745a1.541,1.541,0,0,1,.986-.852l4-.96a5.382,5.382,0,0,0-1.811-4.29c-3.854-3.193-7.165-1.525-8.564-.511a10.007,10.007,0,0,1,1.373,3.15,1.423,1.423,0,0,1-1.016,1.737,1.453,1.453,0,0,1-1.76-1.023c-.06-.272-1.6-6.269-8.939-6.269H85.9a9.15,9.15,0,0,0-7.5,3.86,1.28,1.28,0,0,1-1.144.521c-.054,0-5.419.258-8.316,2.368-6.026,4.389-8.683,10.847-7.105,17.351,1,4.142,3.7,7.433,6.415,7.854a3.364,3.364,0,0,0,3-.81A2.909,2.909,0,0,0,71.867,71.18Zm48.126,29.354A42.773,42.773,0,0,1,116.07,90.27l-9.022-37.5-2.979.717c-1.9,4.174-5.869,8.215-14.16,6.162-1.436,7.216-7.222,7.16-10.264,7.056a9.488,9.488,0,0,1-4.731,4.99l6.474,26.909a42.842,42.842,0,0,1,1.168,10.923l-.24,10.058a.218.218,0,0,0,.088.184.209.209,0,0,0,.189.044l42.034-10.108a.21.21,0,0,0,.157-.125.219.219,0,0,0-.007-.2Zm9.832-20.615-6.337-16.2a4.115,4.115,0,0,0-4.9-2.416l-6.2,1.491.336,1.393,6.2-1.491a2.42,2.42,0,0,1,2.786,1.446l6.435,16.513a7.879,7.879,0,0,1-2.735,9.823,1.516,1.516,0,0,1-.162.1l-5.323,2.692c.218.632.447,1.259.7,1.88l5.868-3.075A9.815,9.815,0,0,0,129.824,79.919Zm-21.56,4.406a1.425,1.425,0,0,0,1.383,1.091,1.485,1.485,0,0,0,.333-.038,1.424,1.424,0,0,0,1.051-1.716l-4.793-19.94a1.423,1.423,0,0,0-2.767.664Zm1.608,6.689,1.672,6.314a1.423,1.423,0,0,0,1.374,1.059,1.473,1.473,0,0,0,.366-.047A1.422,1.422,0,0,0,114.3,96.6l-1.672-6.314a1.423,1.423,0,1,0-2.752.728ZM68.813,31.342a1.421,1.421,0,0,0,1.423-1.423v-18.5a1.423,1.423,0,1,0-2.846,0v18.5A1.421,1.421,0,0,0,68.813,31.342Zm-15.577-.973a1.422,1.422,0,1,0,2.7-.9L51.666,16.663a1.423,1.423,0,0,0-2.7.9Zm29.355.9a1.418,1.418,0,0,0,1.8-.9l4.268-12.805a1.423,1.423,0,0,0-2.7-.9L81.691,29.468A1.423,1.423,0,0,0,82.592,31.268Zm13.474,2.92a1.419,1.419,0,0,0,1.059-.472l6.421-7.158a1.423,1.423,0,1,0-2.117-1.9l-6.421,7.158a1.423,1.423,0,0,0,1.059,2.373Zm-55.818-.472a1.423,1.423,0,0,0,2.117-1.9l-6.421-7.158a1.423,1.423,0,1,0-2.117,1.9ZM72.631,57.006c0-.471.135-4.577,4.372-5.222a1.433,1.433,0,0,0-.428-2.834,7.97,7.97,0,0,0-6.79,8.074,1.372,1.372,0,0,0,1.423,1.35h0A1.38,1.38,0,0,0,72.631,57.006Z" transform="translate(-5.502 -10)"/>
</svg>
